solid OpenSCAD_Model
  facet normal -0.987687 -0.15644 0
    outer loop
      vertex 46.5 33 -4.1
      vertex 46.4266 33.4635 -0.599999
      vertex 46.4266 33.4635 -4.1
    endloop
  endfacet
  facet normal -0.987687 -0.15644 0
    outer loop
      vertex 46.4266 33.4635 -0.599999
      vertex 46.5 33 -4.1
      vertex 46.5 33 -0.599999
    endloop
  endfacet
  facet normal 0 0 1
    outer loop
      vertex 46.4266 33.4635 -4.1
      vertex 46.4266 32.5365 -4.1
      vertex 46.5 33 -4.1
    endloop
  endfacet
  facet normal 0 0 1
    outer loop
      vertex 46.2135 33.8817 -4.1
      vertex 46.4266 32.5365 -4.1
      vertex 46.4266 33.4635 -4.1
    endloop
  endfacet
  facet normal 0 0 1
    outer loop
      vertex 46.2135 33.8817 -4.1
      vertex 46.2135 32.1183 -4.1
      vertex 46.4266 32.5365 -4.1
    endloop
  endfacet
  facet normal 0 0 1
    outer loop
      vertex 45.8817 34.2135 -4.1
      vertex 46.2135 32.1183 -4.1
      vertex 46.2135 33.8817 -4.1
    endloop
  endfacet
  facet normal 0 0 1
    outer loop
      vertex 45.8817 34.2135 -4.1
      vertex 45.8817 31.7865 -4.1
      vertex 46.2135 32.1183 -4.1
    endloop
  endfacet
  facet normal 0 0 1
    outer loop
      vertex 45.4635 34.4266 -4.1
      vertex 45.8817 31.7865 -4.1
      vertex 45.8817 34.2135 -4.1
    endloop
  endfacet
  facet normal 0 0 1
    outer loop
      vertex 45.4635 34.4266 -4.1
      vertex 45.4635 31.5734 -4.1
      vertex 45.8817 31.7865 -4.1
    endloop
  endfacet
  facet normal 0 0 1
    outer loop
      vertex 45 34.5 -4.1
      vertex 45.4635 31.5734 -4.1
      vertex 45.4635 34.4266 -4.1
    endloop
  endfacet
  facet normal 0 0 1
    outer loop
      vertex 45 34.5 -4.1
      vertex 45 31.5 -4.1
      vertex 45.4635 31.5734 -4.1
    endloop
  endfacet
  facet normal -0 0 1
    outer loop
      vertex 44.5365 34.4266 -4.1
      vertex 45 31.5 -4.1
      vertex 45 34.5 -4.1
    endloop
  endfacet
  facet normal 0 0 1
    outer loop
      vertex 44.5365 34.4266 -4.1
      vertex 44.5365 31.5734 -4.1
      vertex 45 31.5 -4.1
    endloop
  endfacet
  facet normal -0 0 1
    outer loop
      vertex 44.1183 34.2135 -4.1
      vertex 44.5365 31.5734 -4.1
      vertex 44.5365 34.4266 -4.1
    endloop
  endfacet
  facet normal 0 0 1
    outer loop
      vertex 44.1183 34.2135 -4.1
      vertex 44.1183 31.7865 -4.1
      vertex 44.5365 31.5734 -4.1
    endloop
  endfacet
  facet normal -0 0 1
    outer loop
      vertex 43.7865 33.8817 -4.1
      vertex 44.1183 31.7865 -4.1
      vertex 44.1183 34.2135 -4.1
    endloop
  endfacet
  facet normal 0 0 1
    outer loop
      vertex 43.7865 33.8817 -4.1
      vertex 43.7865 32.1183 -4.1
      vertex 44.1183 31.7865 -4.1
    endloop
  endfacet
  facet normal -0 0 1
    outer loop
      vertex 43.5734 33.4635 -4.1
      vertex 43.7865 32.1183 -4.1
      vertex 43.7865 33.8817 -4.1
    endloop
  endfacet
  facet normal 0 0 1
    outer loop
      vertex 43.5734 33.4635 -4.1
      vertex 43.5734 32.5365 -4.1
      vertex 43.7865 32.1183 -4.1
    endloop
  endfacet
  facet normal 0 -0 1
    outer loop
      vertex 43.5734 32.5365 -4.1
      vertex 43.5734 33.4635 -4.1
      vertex 43.5 33 -4.1
    endloop
  endfacet
  facet normal -0.45399 -0.891007 0
    outer loop
      vertex 45.4635 34.4266 -4.1
      vertex 45.8817 34.2135 -0.599999
      vertex 45.4635 34.4266 -0.599999
    endloop
  endfacet
  facet normal -0.45399 -0.891007 -0
    outer loop
      vertex 45.8817 34.2135 -0.599999
      vertex 45.4635 34.4266 -4.1
      vertex 45.8817 34.2135 -4.1
    endloop
  endfacet
  facet normal 0.987689 -0.156432 0
    outer loop
      vertex 43.5 33 -0.599999
      vertex 43.5734 33.4635 -4.1
      vertex 43.5734 33.4635 -0.599999
    endloop
  endfacet
  facet normal 0.987689 -0.156432 0
    outer loop
      vertex 43.5734 33.4635 -4.1
      vertex 43.5 33 -0.599999
      vertex 43.5 33 -4.1
    endloop
  endfacet
  facet normal 0.156432 0.987689 -0
    outer loop
      vertex 45 31.5 -4.1
      vertex 44.5365 31.5734 -0.599999
      vertex 45 31.5 -0.599999
    endloop
  endfacet
  facet normal 0.156432 0.987689 0
    outer loop
      vertex 44.5365 31.5734 -0.599999
      vertex 45 31.5 -4.1
      vertex 44.5365 31.5734 -4.1
    endloop
  endfacet
  facet normal -0.707107 -0.707107 0
    outer loop
      vertex 46.2135 33.8817 -4.1
      vertex 45.8817 34.2135 -0.599999
      vertex 45.8817 34.2135 -4.1
    endloop
  endfacet
  facet normal -0.707107 -0.707107 0
    outer loop
      vertex 45.8817 34.2135 -0.599999
      vertex 46.2135 33.8817 -4.1
      vertex 46.2135 33.8817 -0.599999
    endloop
  endfacet
  facet normal -0.891007 -0.45399 0
    outer loop
      vertex 46.4266 33.4635 -4.1
      vertex 46.2135 33.8817 -0.599999
      vertex 46.2135 33.8817 -4.1
    endloop
  endfacet
  facet normal -0.891007 -0.45399 0
    outer loop
      vertex 46.2135 33.8817 -0.599999
      vertex 46.4266 33.4635 -4.1
      vertex 46.4266 33.4635 -0.599999
    endloop
  endfacet
  facet normal 0.15644 -0.987687 0
    outer loop
      vertex 44.5365 34.4266 -4.1
      vertex 45 34.5 -0.599999
      vertex 44.5365 34.4266 -0.599999
    endloop
  endfacet
  facet normal 0.15644 -0.987687 0
    outer loop
      vertex 45 34.5 -0.599999
      vertex 44.5365 34.4266 -4.1
      vertex 45 34.5 -4.1
    endloop
  endfacet
  facet normal 0.453986 -0.891009 0
    outer loop
      vertex 44.1183 34.2135 -4.1
      vertex 44.5365 34.4266 -0.599999
      vertex 44.1183 34.2135 -0.599999
    endloop
  endfacet
  facet normal 0.453986 -0.891009 0
    outer loop
      vertex 44.5365 34.4266 -0.599999
      vertex 44.1183 34.2135 -4.1
      vertex 44.5365 34.4266 -4.1
    endloop
  endfacet
  facet normal 0.891004 -0.453996 0
    outer loop
      vertex 43.5734 33.4635 -0.599999
      vertex 43.7865 33.8817 -4.1
      vertex 43.7865 33.8817 -0.599999
    endloop
  endfacet
  facet normal 0.891004 -0.453996 0
    outer loop
      vertex 43.7865 33.8817 -4.1
      vertex 43.5734 33.4635 -0.599999
      vertex 43.5734 33.4635 -4.1
    endloop
  endfacet
  facet normal 0.707111 -0.707103 0
    outer loop
      vertex 43.7865 33.8817 -0.599999
      vertex 44.1183 34.2135 -4.1
      vertex 44.1183 34.2135 -0.599999
    endloop
  endfacet
  facet normal 0.707111 -0.707103 0
    outer loop
      vertex 44.1183 34.2135 -4.1
      vertex 43.7865 33.8817 -0.599999
      vertex 43.7865 33.8817 -4.1
    endloop
  endfacet
  facet normal -0.453993 0.891005 0
    outer loop
      vertex 45.8817 31.7865 -4.1
      vertex 45.4635 31.5734 -0.599999
      vertex 45.8817 31.7865 -0.599999
    endloop
  endfacet
  facet normal -0.453993 0.891005 0
    outer loop
      vertex 45.4635 31.5734 -0.599999
      vertex 45.8817 31.7865 -4.1
      vertex 45.4635 31.5734 -4.1
    endloop
  endfacet
  facet normal -0.707105 0.707109 0
    outer loop
      vertex 46.2135 32.1183 -4.1
      vertex 45.8817 31.7865 -0.599999
      vertex 46.2135 32.1183 -0.599999
    endloop
  endfacet
  facet normal -0.707105 0.707109 0
    outer loop
      vertex 45.8817 31.7865 -0.599999
      vertex 46.2135 32.1183 -4.1
      vertex 45.8817 31.7865 -4.1
    endloop
  endfacet
  facet normal 0.891005 0.453993 0
    outer loop
      vertex 43.7865 32.1183 -0.599999
      vertex 43.5734 32.5365 -4.1
      vertex 43.5734 32.5365 -0.599999
    endloop
  endfacet
  facet normal 0.891005 0.453993 0
    outer loop
      vertex 43.5734 32.5365 -4.1
      vertex 43.7865 32.1183 -0.599999
      vertex 43.7865 32.1183 -4.1
    endloop
  endfacet
  facet normal 0.45399 0.891007 -0
    outer loop
      vertex 44.5365 31.5734 -4.1
      vertex 44.1183 31.7865 -0.599999
      vertex 44.5365 31.5734 -0.599999
    endloop
  endfacet
  facet normal 0.45399 0.891007 0
    outer loop
      vertex 44.1183 31.7865 -0.599999
      vertex 44.5365 31.5734 -4.1
      vertex 44.1183 31.7865 -4.1
    endloop
  endfacet
  facet normal 0.707109 0.707105 0
    outer loop
      vertex 44.1183 31.7865 -0.599999
      vertex 43.7865 32.1183 -4.1
      vertex 43.7865 32.1183 -0.599999
    endloop
  endfacet
  facet normal 0.707109 0.707105 0
    outer loop
      vertex 43.7865 32.1183 -4.1
      vertex 44.1183 31.7865 -0.599999
      vertex 44.1183 31.7865 -4.1
    endloop
  endfacet
  facet normal -0.15644 -0.987687 0
    outer loop
      vertex 45 34.5 -4.1
      vertex 45.4635 34.4266 -0.599999
      vertex 45 34.5 -0.599999
    endloop
  endfacet
  facet normal -0.15644 -0.987687 -0
    outer loop
      vertex 45.4635 34.4266 -0.599999
      vertex 45 34.5 -4.1
      vertex 45.4635 34.4266 -4.1
    endloop
  endfacet
  facet normal 0.987689 0.156432 0
    outer loop
      vertex 43.5734 32.5365 -0.599999
      vertex 43.5 33 -4.1
      vertex 43.5 33 -0.599999
    endloop
  endfacet
  facet normal 0.987689 0.156432 0
    outer loop
      vertex 43.5 33 -4.1
      vertex 43.5734 32.5365 -0.599999
      vertex 43.5734 32.5365 -4.1
    endloop
  endfacet
  facet normal -0.891009 0.453986 0
    outer loop
      vertex 46.2135 32.1183 -4.1
      vertex 46.4266 32.5365 -0.599999
      vertex 46.4266 32.5365 -4.1
    endloop
  endfacet
  facet normal -0.891009 0.453986 0
    outer loop
      vertex 46.4266 32.5365 -0.599999
      vertex 46.2135 32.1183 -4.1
      vertex 46.2135 32.1183 -0.599999
    endloop
  endfacet
  facet normal -0.156432 0.987689 0
    outer loop
      vertex 45.4635 31.5734 -4.1
      vertex 45 31.5 -0.599999
      vertex 45.4635 31.5734 -0.599999
    endloop
  endfacet
  facet normal -0.156432 0.987689 0
    outer loop
      vertex 45 31.5 -0.599999
      vertex 45.4635 31.5734 -4.1
      vertex 45 31.5 -4.1
    endloop
  endfacet
  facet normal -0.987687 0.15644 0
    outer loop
      vertex 46.4266 32.5365 -4.1
      vertex 46.5 33 -0.599999
      vertex 46.5 33 -4.1
    endloop
  endfacet
  facet normal -0.987687 0.15644 0
    outer loop
      vertex 46.5 33 -0.599999
      vertex 46.4266 32.5365 -4.1
      vertex 46.4266 32.5365 -0.599999
    endloop
  endfacet
  facet normal -0.987689 -0.156432 0
    outer loop
      vertex -43.5 -33 -4.1
      vertex -43.5734 -32.5365 -0.599999
      vertex -43.5734 -32.5365 -4.1
    endloop
  endfacet
  facet normal -0.987689 -0.156432 0
    outer loop
      vertex -43.5734 -32.5365 -0.599999
      vertex -43.5 -33 -4.1
      vertex -43.5 -33 -0.599999
    endloop
  endfacet
  facet normal 0.987687 -0.15644 0
    outer loop
      vertex -46.5 -33 -0.599999
      vertex -46.4266 -32.5365 -4.1
      vertex -46.4266 -32.5365 -0.599999
    endloop
  endfacet
  facet normal 0.987687 -0.15644 0
    outer loop
      vertex -46.4266 -32.5365 -4.1
      vertex -46.5 -33 -0.599999
      vertex -46.5 -33 -4.1
    endloop
  endfacet
  facet normal 0.156432 -0.987689 0
    outer loop
      vertex -45.4635 -31.5734 -4.1
      vertex -45 -31.5 -0.599999
      vertex -45.4635 -31.5734 -0.599999
    endloop
  endfacet
  facet normal 0.156432 -0.987689 0
    outer loop
      vertex -45 -31.5 -0.599999
      vertex -45.4635 -31.5734 -4.1
      vertex -45 -31.5 -4.1
    endloop
  endfacet
  facet normal 0.15644 0.987687 -0
    outer loop
      vertex -45 -34.5 -4.1
      vertex -45.4635 -34.4266 -0.599999
      vertex -45 -34.5 -0.599999
    endloop
  endfacet
  facet normal 0.15644 0.987687 0
    outer loop
      vertex -45.4635 -34.4266 -0.599999
      vertex -45 -34.5 -4.1
      vertex -45.4635 -34.4266 -4.1
    endloop
  endfacet
  facet normal 0 0 1
    outer loop
      vertex -43.5734 -32.5365 -4.1
      vertex -43.5734 -33.4635 -4.1
      vertex -43.5 -33 -4.1
    endloop
  endfacet
  facet normal 0 0 1
    outer loop
      vertex -43.7865 -32.1183 -4.1
      vertex -43.5734 -33.4635 -4.1
      vertex -43.5734 -32.5365 -4.1
    endloop
  endfacet
  facet normal 0 0 1
    outer loop
      vertex -43.7865 -32.1183 -4.1
      vertex -43.7865 -33.8817 -4.1
      vertex -43.5734 -33.4635 -4.1
    endloop
  endfacet
  facet normal 0 0 1
    outer loop
      vertex -44.1183 -31.7865 -4.1
      vertex -43.7865 -33.8817 -4.1
      vertex -43.7865 -32.1183 -4.1
    endloop
  endfacet
  facet normal 0 0 1
    outer loop
      vertex -44.1183 -31.7865 -4.1
      vertex -44.1183 -34.2135 -4.1
      vertex -43.7865 -33.8817 -4.1
    endloop
  endfacet
  facet normal 0 0 1
    outer loop
      vertex -44.5365 -31.5734 -4.1
      vertex -44.1183 -34.2135 -4.1
      vertex -44.1183 -31.7865 -4.1
    endloop
  endfacet
  facet normal 0 0 1
    outer loop
      vertex -44.5365 -31.5734 -4.1
      vertex -44.5365 -34.4266 -4.1
      vertex -44.1183 -34.2135 -4.1
    endloop
  endfacet
  facet normal 0 0 1
    outer loop
      vertex -45 -31.5 -4.1
      vertex -44.5365 -34.4266 -4.1
      vertex -44.5365 -31.5734 -4.1
    endloop
  endfacet
  facet normal 0 0 1
    outer loop
      vertex -45 -31.5 -4.1
      vertex -45 -34.5 -4.1
      vertex -44.5365 -34.4266 -4.1
    endloop
  endfacet
  facet normal -0 0 1
    outer loop
      vertex -45.4635 -31.5734 -4.1
      vertex -45 -34.5 -4.1
      vertex -45 -31.5 -4.1
    endloop
  endfacet
  facet normal 0 0 1
    outer loop
      vertex -45.4635 -31.5734 -4.1
      vertex -45.4635 -34.4266 -4.1
      vertex -45 -34.5 -4.1
    endloop
  endfacet
  facet normal -0 0 1
    outer loop
      vertex -45.8817 -31.7865 -4.1
      vertex -45.4635 -34.4266 -4.1
      vertex -45.4635 -31.5734 -4.1
    endloop
  endfacet
  facet normal 0 0 1
    outer loop
      vertex -45.8817 -31.7865 -4.1
      vertex -45.8817 -34.2135 -4.1
      vertex -45.4635 -34.4266 -4.1
    endloop
  endfacet
  facet normal -0 0 1
    outer loop
      vertex -46.2135 -32.1183 -4.1
      vertex -45.8817 -34.2135 -4.1
      vertex -45.8817 -31.7865 -4.1
    endloop
  endfacet
  facet normal 0 0 1
    outer loop
      vertex -46.2135 -32.1183 -4.1
      vertex -46.2135 -33.8817 -4.1
      vertex -45.8817 -34.2135 -4.1
    endloop
  endfacet
  facet normal -0 0 1
    outer loop
      vertex -46.4266 -32.5365 -4.1
      vertex -46.2135 -33.8817 -4.1
      vertex -46.2135 -32.1183 -4.1
    endloop
  endfacet
  facet normal 0 0 1
    outer loop
      vertex -46.4266 -32.5365 -4.1
      vertex -46.4266 -33.4635 -4.1
      vertex -46.2135 -33.8817 -4.1
    endloop
  endfacet
  facet normal 0 -0 1
    outer loop
      vertex -46.4266 -33.4635 -4.1
      vertex -46.4266 -32.5365 -4.1
      vertex -46.5 -33 -4.1
    endloop
  endfacet
  facet normal -0.707109 -0.707105 0
    outer loop
      vertex -43.7865 -32.1183 -4.1
      vertex -44.1183 -31.7865 -0.599999
      vertex -44.1183 -31.7865 -4.1
    endloop
  endfacet
  facet normal -0.707109 -0.707105 0
    outer loop
      vertex -44.1183 -31.7865 -0.599999
      vertex -43.7865 -32.1183 -4.1
      vertex -43.7865 -32.1183 -0.599999
    endloop
  endfacet
  facet normal -0.891005 -0.453993 0
    outer loop
      vertex -43.5734 -32.5365 -4.1
      vertex -43.7865 -32.1183 -0.599999
      vertex -43.7865 -32.1183 -4.1
    endloop
  endfacet
  facet normal -0.891005 -0.453993 0
    outer loop
      vertex -43.7865 -32.1183 -0.599999
      vertex -43.5734 -32.5365 -4.1
      vertex -43.5734 -32.5365 -0.599999
    endloop
  endfacet
  facet normal -0.45399 -0.891007 0
    outer loop
      vertex -44.5365 -31.5734 -4.1
      vertex -44.1183 -31.7865 -0.599999
      vertex -44.5365 -31.5734 -0.599999
    endloop
  endfacet
  facet normal -0.45399 -0.891007 -0
    outer loop
      vertex -44.1183 -31.7865 -0.599999
      vertex -44.5365 -31.5734 -4.1
      vertex -44.1183 -31.7865 -4.1
    endloop
  endfacet
  facet normal 0.707105 -0.707109 0
    outer loop
      vertex -46.2135 -32.1183 -4.1
      vertex -45.8817 -31.7865 -0.599999
      vertex -46.2135 -32.1183 -0.599999
    endloop
  endfacet
  facet normal 0.707105 -0.707109 0
    outer loop
      vertex -45.8817 -31.7865 -0.599999
      vertex -46.2135 -32.1183 -4.1
      vertex -45.8817 -31.7865 -4.1
    endloop
  endfacet
  facet normal 0.891009 -0.453986 0
    outer loop
      vertex -46.4266 -32.5365 -0.599999
      vertex -46.2135 -32.1183 -4.1
      vertex -46.2135 -32.1183 -0.599999
    endloop
  endfacet
  facet normal 0.891009 -0.453986 0
    outer loop
      vertex -46.2135 -32.1183 -4.1
      vertex -46.4266 -32.5365 -0.599999
      vertex -46.4266 -32.5365 -4.1
    endloop
  endfacet
  facet normal 0.453993 -0.891005 0
    outer loop
      vertex -45.8817 -31.7865 -4.1
      vertex -45.4635 -31.5734 -0.599999
      vertex -45.8817 -31.7865 -0.599999
    endloop
  endfacet
  facet normal 0.453993 -0.891005 0
    outer loop
      vertex -45.4635 -31.5734 -0.599999
      vertex -45.8817 -31.7865 -4.1
      vertex -45.4635 -31.5734 -4.1
    endloop
  endfacet
  facet normal -0.891004 0.453996 0
    outer loop
      vertex -43.7865 -33.8817 -4.1
      vertex -43.5734 -33.4635 -0.599999
      vertex -43.5734 -33.4635 -4.1
    endloop
  endfacet
  facet normal -0.891004 0.453996 0
    outer loop
      vertex -43.5734 -33.4635 -0.599999
      vertex -43.7865 -33.8817 -4.1
      vertex -43.7865 -33.8817 -0.599999
    endloop
  endfacet
  facet normal 0.707107 0.707107 0
    outer loop
      vertex -45.8817 -34.2135 -0.599999
      vertex -46.2135 -33.8817 -4.1
      vertex -46.2135 -33.8817 -0.599999
    endloop
  endfacet
  facet normal 0.707107 0.707107 0
    outer loop
      vertex -46.2135 -33.8817 -4.1
      vertex -45.8817 -34.2135 -0.599999
      vertex -45.8817 -34.2135 -4.1
    endloop
  endfacet
  facet normal 0.987687 0.15644 0
    outer loop
      vertex -46.4266 -33.4635 -0.599999
      vertex -46.5 -33 -4.1
      vertex -46.5 -33 -0.599999
    endloop
  endfacet
  facet normal 0.987687 0.15644 0
    outer loop
      vertex -46.5 -33 -4.1
      vertex -46.4266 -33.4635 -0.599999
      vertex -46.4266 -33.4635 -4.1
    endloop
  endfacet
  facet normal -0.156432 -0.987689 0
    outer loop
      vertex -45 -31.5 -4.1
      vertex -44.5365 -31.5734 -0.599999
      vertex -45 -31.5 -0.599999
    endloop
  endfacet
  facet normal -0.156432 -0.987689 -0
    outer loop
      vertex -44.5365 -31.5734 -0.599999
      vertex -45 -31.5 -4.1
      vertex -44.5365 -31.5734 -4.1
    endloop
  endfacet
  facet normal -0.987689 0.156432 0
    outer loop
      vertex -43.5734 -33.4635 -4.1
      vertex -43.5 -33 -0.599999
      vertex -43.5 -33 -4.1
    endloop
  endfacet
  facet normal -0.987689 0.156432 0
    outer loop
      vertex -43.5 -33 -0.599999
      vertex -43.5734 -33.4635 -4.1
      vertex -43.5734 -33.4635 -0.599999
    endloop
  endfacet
  facet normal -0.15644 0.987687 0
    outer loop
      vertex -44.5365 -34.4266 -4.1
      vertex -45 -34.5 -0.599999
      vertex -44.5365 -34.4266 -0.599999
    endloop
  endfacet
  facet normal -0.15644 0.987687 0
    outer loop
      vertex -45 -34.5 -0.599999
      vertex -44.5365 -34.4266 -4.1
      vertex -45 -34.5 -4.1
    endloop
  endfacet
  facet normal -0.707111 0.707103 0
    outer loop
      vertex -44.1183 -34.2135 -4.1
      vertex -43.7865 -33.8817 -0.599999
      vertex -43.7865 -33.8817 -4.1
    endloop
  endfacet
  facet normal -0.707111 0.707103 0
    outer loop
      vertex -43.7865 -33.8817 -0.599999
      vertex -44.1183 -34.2135 -4.1
      vertex -44.1183 -34.2135 -0.599999
    endloop
  endfacet
  facet normal 0.45399 0.891007 -0
    outer loop
      vertex -45.4635 -34.4266 -4.1
      vertex -45.8817 -34.2135 -0.599999
      vertex -45.4635 -34.4266 -0.599999
    endloop
  endfacet
  facet normal 0.45399 0.891007 0
    outer loop
      vertex -45.8817 -34.2135 -0.599999
      vertex -45.4635 -34.4266 -4.1
      vertex -45.8817 -34.2135 -4.1
    endloop
  endfacet
  facet normal 0.891007 0.45399 0
    outer loop
      vertex -46.2135 -33.8817 -0.599999
      vertex -46.4266 -33.4635 -4.1
      vertex -46.4266 -33.4635 -0.599999
    endloop
  endfacet
  facet normal 0.891007 0.45399 0
    outer loop
      vertex -46.4266 -33.4635 -4.1
      vertex -46.2135 -33.8817 -0.599999
      vertex -46.2135 -33.8817 -4.1
    endloop
  endfacet
  facet normal -0.453986 0.891009 0
    outer loop
      vertex -44.1183 -34.2135 -4.1
      vertex -44.5365 -34.4266 -0.599999
      vertex -44.1183 -34.2135 -0.599999
    endloop
  endfacet
  facet normal -0.453986 0.891009 0
    outer loop
      vertex -44.5365 -34.4266 -0.599999
      vertex -44.1183 -34.2135 -4.1
      vertex -44.5365 -34.4266 -4.1
    endloop
  endfacet
  facet normal -0.15644 -0.987687 0
    outer loop
      vertex -45 34.5 -4.1
      vertex -44.5365 34.4266 -0.599999
      vertex -45 34.5 -0.599999
    endloop
  endfacet
  facet normal -0.15644 -0.987687 -0
    outer loop
      vertex -44.5365 34.4266 -0.599999
      vertex -45 34.5 -4.1
      vertex -44.5365 34.4266 -4.1
    endloop
  endfacet
  facet normal -0.987689 0.156432 0
    outer loop
      vertex -43.5734 32.5365 -4.1
      vertex -43.5 33 -0.599999
      vertex -43.5 33 -4.1
    endloop
  endfacet
  facet normal -0.987689 0.156432 0
    outer loop
      vertex -43.5 33 -0.599999
      vertex -43.5734 32.5365 -4.1
      vertex -43.5734 32.5365 -0.599999
    endloop
  endfacet
  facet normal -0.707111 -0.707103 0
    outer loop
      vertex -43.7865 33.8817 -4.1
      vertex -44.1183 34.2135 -0.599999
      vertex -44.1183 34.2135 -4.1
    endloop
  endfacet
  facet normal -0.707111 -0.707103 0
    outer loop
      vertex -44.1183 34.2135 -0.599999
      vertex -43.7865 33.8817 -4.1
      vertex -43.7865 33.8817 -0.599999
    endloop
  endfacet
  facet normal -0.891004 -0.453996 0
    outer loop
      vertex -43.5734 33.4635 -4.1
      vertex -43.7865 33.8817 -0.599999
      vertex -43.7865 33.8817 -4.1
    endloop
  endfacet
  facet normal -0.891004 -0.453996 0
    outer loop
      vertex -43.7865 33.8817 -0.599999
      vertex -43.5734 33.4635 -4.1
      vertex -43.5734 33.4635 -0.599999
    endloop
  endfacet
  facet normal 0.15644 -0.987687 0
    outer loop
      vertex -45.4635 34.4266 -4.1
      vertex -45 34.5 -0.599999
      vertex -45.4635 34.4266 -0.599999
    endloop
  endfacet
  facet normal 0.15644 -0.987687 0
    outer loop
      vertex -45 34.5 -0.599999
      vertex -45.4635 34.4266 -4.1
      vertex -45 34.5 -4.1
    endloop
  endfacet
  facet normal 0.45399 -0.891007 0
    outer loop
      vertex -45.8817 34.2135 -4.1
      vertex -45.4635 34.4266 -0.599999
      vertex -45.8817 34.2135 -0.599999
    endloop
  endfacet
  facet normal 0.45399 -0.891007 0
    outer loop
      vertex -45.4635 34.4266 -0.599999
      vertex -45.8817 34.2135 -4.1
      vertex -45.4635 34.4266 -4.1
    endloop
  endfacet
  facet normal -0.453986 -0.891009 0
    outer loop
      vertex -44.5365 34.4266 -4.1
      vertex -44.1183 34.2135 -0.599999
      vertex -44.5365 34.4266 -0.599999
    endloop
  endfacet
  facet normal -0.453986 -0.891009 -0
    outer loop
      vertex -44.1183 34.2135 -0.599999
      vertex -44.5365 34.4266 -4.1
      vertex -44.1183 34.2135 -4.1
    endloop
  endfacet
  facet normal 0.987687 -0.15644 0
    outer loop
      vertex -46.5 33 -0.599999
      vertex -46.4266 33.4635 -4.1
      vertex -46.4266 33.4635 -0.599999
    endloop
  endfacet
  facet normal 0.987687 -0.15644 0
    outer loop
      vertex -46.4266 33.4635 -4.1
      vertex -46.5 33 -0.599999
      vertex -46.5 33 -4.1
    endloop
  endfacet
  facet normal 0.707107 -0.707107 0
    outer loop
      vertex -46.2135 33.8817 -0.599999
      vertex -45.8817 34.2135 -4.1
      vertex -45.8817 34.2135 -0.599999
    endloop
  endfacet
  facet normal 0.707107 -0.707107 0
    outer loop
      vertex -45.8817 34.2135 -4.1
      vertex -46.2135 33.8817 -0.599999
      vertex -46.2135 33.8817 -4.1
    endloop
  endfacet
  facet normal -0.987689 -0.156432 0
    outer loop
      vertex -43.5 33 -4.1
      vertex -43.5734 33.4635 -0.599999
      vertex -43.5734 33.4635 -4.1
    endloop
  endfacet
  facet normal -0.987689 -0.156432 0
    outer loop
      vertex -43.5734 33.4635 -0.599999
      vertex -43.5 33 -4.1
      vertex -43.5 33 -0.599999
    endloop
  endfacet
  facet normal 0.987687 0.15644 0
    outer loop
      vertex -46.4266 32.5365 -0.599999
      vertex -46.5 33 -4.1
      vertex -46.5 33 -0.599999
    endloop
  endfacet
  facet normal 0.987687 0.15644 0
    outer loop
      vertex -46.5 33 -4.1
      vertex -46.4266 32.5365 -0.599999
      vertex -46.4266 32.5365 -4.1
    endloop
  endfacet
  facet normal -0.45399 0.891007 0
    outer loop
      vertex -44.1183 31.7865 -4.1
      vertex -44.5365 31.5734 -0.599999
      vertex -44.1183 31.7865 -0.599999
    endloop
  endfacet
  facet normal -0.45399 0.891007 0
    outer loop
      vertex -44.5365 31.5734 -0.599999
      vertex -44.1183 31.7865 -4.1
      vertex -44.5365 31.5734 -4.1
    endloop
  endfacet
  facet normal -0.707109 0.707105 0
    outer loop
      vertex -44.1183 31.7865 -4.1
      vertex -43.7865 32.1183 -0.599999
      vertex -43.7865 32.1183 -4.1
    endloop
  endfacet
  facet normal -0.707109 0.707105 0
    outer loop
      vertex -43.7865 32.1183 -0.599999
      vertex -44.1183 31.7865 -4.1
      vertex -44.1183 31.7865 -0.599999
    endloop
  endfacet
  facet normal 0.891007 -0.45399 0
    outer loop
      vertex -46.4266 33.4635 -0.599999
      vertex -46.2135 33.8817 -4.1
      vertex -46.2135 33.8817 -0.599999
    endloop
  endfacet
  facet normal 0.891007 -0.45399 0
    outer loop
      vertex -46.2135 33.8817 -4.1
      vertex -46.4266 33.4635 -0.599999
      vertex -46.4266 33.4635 -4.1
    endloop
  endfacet
  facet normal 0.707105 0.707109 -0
    outer loop
      vertex -45.8817 31.7865 -4.1
      vertex -46.2135 32.1183 -0.599999
      vertex -45.8817 31.7865 -0.599999
    endloop
  endfacet
  facet normal 0.707105 0.707109 0
    outer loop
      vertex -46.2135 32.1183 -0.599999
      vertex -45.8817 31.7865 -4.1
      vertex -46.2135 32.1183 -4.1
    endloop
  endfacet
  facet normal -0.891005 0.453993 0
    outer loop
      vertex -43.7865 32.1183 -4.1
      vertex -43.5734 32.5365 -0.599999
      vertex -43.5734 32.5365 -4.1
    endloop
  endfacet
  facet normal -0.891005 0.453993 0
    outer loop
      vertex -43.5734 32.5365 -0.599999
      vertex -43.7865 32.1183 -4.1
      vertex -43.7865 32.1183 -0.599999
    endloop
  endfacet
  facet normal 0 0 1
    outer loop
      vertex -43.5734 33.4635 -4.1
      vertex -43.5734 32.5365 -4.1
      vertex -43.5 33 -4.1
    endloop
  endfacet
  facet normal 0 0 1
    outer loop
      vertex -43.7865 33.8817 -4.1
      vertex -43.5734 32.5365 -4.1
      vertex -43.5734 33.4635 -4.1
    endloop
  endfacet
  facet normal 0 0 1
    outer loop
      vertex -43.7865 33.8817 -4.1
      vertex -43.7865 32.1183 -4.1
      vertex -43.5734 32.5365 -4.1
    endloop
  endfacet
  facet normal 0 0 1
    outer loop
      vertex -44.1183 34.2135 -4.1
      vertex -43.7865 32.1183 -4.1
      vertex -43.7865 33.8817 -4.1
    endloop
  endfacet
  facet normal 0 0 1
    outer loop
      vertex -44.1183 34.2135 -4.1
      vertex -44.1183 31.7865 -4.1
      vertex -43.7865 32.1183 -4.1
    endloop
  endfacet
  facet normal 0 0 1
    outer loop
      vertex -44.5365 34.4266 -4.1
      vertex -44.1183 31.7865 -4.1
      vertex -44.1183 34.2135 -4.1
    endloop
  endfacet
  facet normal 0 0 1
    outer loop
      vertex -44.5365 34.4266 -4.1
      vertex -44.5365 31.5734 -4.1
      vertex -44.1183 31.7865 -4.1
    endloop
  endfacet
  facet normal 0 0 1
    outer loop
      vertex -45 34.5 -4.1
      vertex -44.5365 31.5734 -4.1
      vertex -44.5365 34.4266 -4.1
    endloop
  endfacet
  facet normal 0 0 1
    outer loop
      vertex -45 34.5 -4.1
      vertex -45 31.5 -4.1
      vertex -44.5365 31.5734 -4.1
    endloop
  endfacet
  facet normal -0 0 1
    outer loop
      vertex -45.4635 34.4266 -4.1
      vertex -45 31.5 -4.1
      vertex -45 34.5 -4.1
    endloop
  endfacet
  facet normal 0 0 1
    outer loop
      vertex -45.4635 34.4266 -4.1
      vertex -45.4635 31.5734 -4.1
      vertex -45 31.5 -4.1
    endloop
  endfacet
  facet normal -0 0 1
    outer loop
      vertex -45.8817 34.2135 -4.1
      vertex -45.4635 31.5734 -4.1
      vertex -45.4635 34.4266 -4.1
    endloop
  endfacet
  facet normal 0 0 1
    outer loop
      vertex -45.8817 34.2135 -4.1
      vertex -45.8817 31.7865 -4.1
      vertex -45.4635 31.5734 -4.1
    endloop
  endfacet
  facet normal -0 0 1
    outer loop
      vertex -46.2135 33.8817 -4.1
      vertex -45.8817 31.7865 -4.1
      vertex -45.8817 34.2135 -4.1
    endloop
  endfacet
  facet normal 0 0 1
    outer loop
      vertex -46.2135 33.8817 -4.1
      vertex -46.2135 32.1183 -4.1
      vertex -45.8817 31.7865 -4.1
    endloop
  endfacet
  facet normal -0 0 1
    outer loop
      vertex -46.4266 33.4635 -4.1
      vertex -46.2135 32.1183 -4.1
      vertex -46.2135 33.8817 -4.1
    endloop
  endfacet
  facet normal 0 0 1
    outer loop
      vertex -46.4266 33.4635 -4.1
      vertex -46.4266 32.5365 -4.1
      vertex -46.2135 32.1183 -4.1
    endloop
  endfacet
  facet normal 0 -0 1
    outer loop
      vertex -46.4266 32.5365 -4.1
      vertex -46.4266 33.4635 -4.1
      vertex -46.5 33 -4.1
    endloop
  endfacet
  facet normal 0.891009 0.453986 0
    outer loop
      vertex -46.2135 32.1183 -0.599999
      vertex -46.4266 32.5365 -4.1
      vertex -46.4266 32.5365 -0.599999
    endloop
  endfacet
  facet normal 0.891009 0.453986 0
    outer loop
      vertex -46.4266 32.5365 -4.1
      vertex -46.2135 32.1183 -0.599999
      vertex -46.2135 32.1183 -4.1
    endloop
  endfacet
  facet normal 0.156432 0.987689 -0
    outer loop
      vertex -45 31.5 -4.1
      vertex -45.4635 31.5734 -0.599999
      vertex -45 31.5 -0.599999
    endloop
  endfacet
  facet normal 0.156432 0.987689 0
    outer loop
      vertex -45.4635 31.5734 -0.599999
      vertex -45 31.5 -4.1
      vertex -45.4635 31.5734 -4.1
    endloop
  endfacet
  facet normal -0.156432 0.987689 0
    outer loop
      vertex -44.5365 31.5734 -4.1
      vertex -45 31.5 -0.599999
      vertex -44.5365 31.5734 -0.599999
    endloop
  endfacet
  facet normal -0.156432 0.987689 0
    outer loop
      vertex -45 31.5 -0.599999
      vertex -44.5365 31.5734 -4.1
      vertex -45 31.5 -4.1
    endloop
  endfacet
  facet normal 0.453993 0.891005 -0
    outer loop
      vertex -45.4635 31.5734 -4.1
      vertex -45.8817 31.7865 -0.599999
      vertex -45.4635 31.5734 -0.599999
    endloop
  endfacet
  facet normal 0.453993 0.891005 0
    outer loop
      vertex -45.8817 31.7865 -0.599999
      vertex -45.4635 31.5734 -4.1
      vertex -45.8817 31.7865 -4.1
    endloop
  endfacet
  facet normal -0.987687 -0.15644 0
    outer loop
      vertex 46.5 -33 -4.1
      vertex 46.4266 -32.5365 -0.599999
      vertex 46.4266 -32.5365 -4.1
    endloop
  endfacet
  facet normal -0.987687 -0.15644 0
    outer loop
      vertex 46.4266 -32.5365 -0.599999
      vertex 46.5 -33 -4.1
      vertex 46.5 -33 -0.599999
    endloop
  endfacet
  facet normal 0 0 1
    outer loop
      vertex 46.4266 -32.5365 -4.1
      vertex 46.4266 -33.4635 -4.1
      vertex 46.5 -33 -4.1
    endloop
  endfacet
  facet normal 0 0 1
    outer loop
      vertex 46.2135 -32.1183 -4.1
      vertex 46.4266 -33.4635 -4.1
      vertex 46.4266 -32.5365 -4.1
    endloop
  endfacet
  facet normal 0 0 1
    outer loop
      vertex 46.2135 -32.1183 -4.1
      vertex 46.2135 -33.8817 -4.1
      vertex 46.4266 -33.4635 -4.1
    endloop
  endfacet
  facet normal 0 0 1
    outer loop
      vertex 45.8817 -31.7865 -4.1
      vertex 46.2135 -33.8817 -4.1
      vertex 46.2135 -32.1183 -4.1
    endloop
  endfacet
  facet normal 0 0 1
    outer loop
      vertex 45.8817 -31.7865 -4.1
      vertex 45.8817 -34.2135 -4.1
      vertex 46.2135 -33.8817 -4.1
    endloop
  endfacet
  facet normal 0 0 1
    outer loop
      vertex 45.4635 -31.5734 -4.1
      vertex 45.8817 -34.2135 -4.1
      vertex 45.8817 -31.7865 -4.1
    endloop
  endfacet
  facet normal 0 0 1
    outer loop
      vertex 45.4635 -31.5734 -4.1
      vertex 45.4635 -34.4266 -4.1
      vertex 45.8817 -34.2135 -4.1
    endloop
  endfacet
  facet normal 0 0 1
    outer loop
      vertex 45 -31.5 -4.1
      vertex 45.4635 -34.4266 -4.1
      vertex 45.4635 -31.5734 -4.1
    endloop
  endfacet
  facet normal 0 0 1
    outer loop
      vertex 45 -31.5 -4.1
      vertex 45 -34.5 -4.1
      vertex 45.4635 -34.4266 -4.1
    endloop
  endfacet
  facet normal -0 0 1
    outer loop
      vertex 44.5365 -31.5734 -4.1
      vertex 45 -34.5 -4.1
      vertex 45 -31.5 -4.1
    endloop
  endfacet
  facet normal 0 0 1
    outer loop
      vertex 44.5365 -31.5734 -4.1
      vertex 44.5365 -34.4266 -4.1
      vertex 45 -34.5 -4.1
    endloop
  endfacet
  facet normal -0 0 1
    outer loop
      vertex 44.1183 -31.7865 -4.1
      vertex 44.5365 -34.4266 -4.1
      vertex 44.5365 -31.5734 -4.1
    endloop
  endfacet
  facet normal 0 0 1
    outer loop
      vertex 44.1183 -31.7865 -4.1
      vertex 44.1183 -34.2135 -4.1
      vertex 44.5365 -34.4266 -4.1
    endloop
  endfacet
  facet normal -0 0 1
    outer loop
      vertex 43.7865 -32.1183 -4.1
      vertex 44.1183 -34.2135 -4.1
      vertex 44.1183 -31.7865 -4.1
    endloop
  endfacet
  facet normal 0 0 1
    outer loop
      vertex 43.7865 -32.1183 -4.1
      vertex 43.7865 -33.8817 -4.1
      vertex 44.1183 -34.2135 -4.1
    endloop
  endfacet
  facet normal -0 0 1
    outer loop
      vertex 43.5734 -32.5365 -4.1
      vertex 43.7865 -33.8817 -4.1
      vertex 43.7865 -32.1183 -4.1
    endloop
  endfacet
  facet normal 0 0 1
    outer loop
      vertex 43.5734 -32.5365 -4.1
      vertex 43.5734 -33.4635 -4.1
      vertex 43.7865 -33.8817 -4.1
    endloop
  endfacet
  facet normal 0 -0 1
    outer loop
      vertex 43.5734 -33.4635 -4.1
      vertex 43.5734 -32.5365 -4.1
      vertex 43.5 -33 -4.1
    endloop
  endfacet
  facet normal 0.891004 0.453996 0
    outer loop
      vertex 43.7865 -33.8817 -0.599999
      vertex 43.5734 -33.4635 -4.1
      vertex 43.5734 -33.4635 -0.599999
    endloop
  endfacet
  facet normal 0.891004 0.453996 0
    outer loop
      vertex 43.5734 -33.4635 -4.1
      vertex 43.7865 -33.8817 -0.599999
      vertex 43.7865 -33.8817 -4.1
    endloop
  endfacet
  facet normal -0.707105 -0.707109 0
    outer loop
      vertex 45.8817 -31.7865 -4.1
      vertex 46.2135 -32.1183 -0.599999
      vertex 45.8817 -31.7865 -0.599999
    endloop
  endfacet
  facet normal -0.707105 -0.707109 -0
    outer loop
      vertex 46.2135 -32.1183 -0.599999
      vertex 45.8817 -31.7865 -4.1
      vertex 46.2135 -32.1183 -4.1
    endloop
  endfacet
  facet normal -0.891009 -0.453986 0
    outer loop
      vertex 46.4266 -32.5365 -4.1
      vertex 46.2135 -32.1183 -0.599999
      vertex 46.2135 -32.1183 -4.1
    endloop
  endfacet
  facet normal -0.891009 -0.453986 0
    outer loop
      vertex 46.2135 -32.1183 -0.599999
      vertex 46.4266 -32.5365 -4.1
      vertex 46.4266 -32.5365 -0.599999
    endloop
  endfacet
  facet normal 0.45399 -0.891007 0
    outer loop
      vertex 44.1183 -31.7865 -4.1
      vertex 44.5365 -31.5734 -0.599999
      vertex 44.1183 -31.7865 -0.599999
    endloop
  endfacet
  facet normal 0.45399 -0.891007 0
    outer loop
      vertex 44.5365 -31.5734 -0.599999
      vertex 44.1183 -31.7865 -4.1
      vertex 44.5365 -31.5734 -4.1
    endloop
  endfacet
  facet normal 0.707109 -0.707105 0
    outer loop
      vertex 43.7865 -32.1183 -0.599999
      vertex 44.1183 -31.7865 -4.1
      vertex 44.1183 -31.7865 -0.599999
    endloop
  endfacet
  facet normal 0.707109 -0.707105 0
    outer loop
      vertex 44.1183 -31.7865 -4.1
      vertex 43.7865 -32.1183 -0.599999
      vertex 43.7865 -32.1183 -4.1
    endloop
  endfacet
  facet normal 0.156432 -0.987689 0
    outer loop
      vertex 44.5365 -31.5734 -4.1
      vertex 45 -31.5 -0.599999
      vertex 44.5365 -31.5734 -0.599999
    endloop
  endfacet
  facet normal 0.156432 -0.987689 0
    outer loop
      vertex 45 -31.5 -0.599999
      vertex 44.5365 -31.5734 -4.1
      vertex 45 -31.5 -4.1
    endloop
  endfacet
  facet normal -0.453993 -0.891005 0
    outer loop
      vertex 45.4635 -31.5734 -4.1
      vertex 45.8817 -31.7865 -0.599999
      vertex 45.4635 -31.5734 -0.599999
    endloop
  endfacet
  facet normal -0.453993 -0.891005 -0
    outer loop
      vertex 45.8817 -31.7865 -0.599999
      vertex 45.4635 -31.5734 -4.1
      vertex 45.8817 -31.7865 -4.1
    endloop
  endfacet
  facet normal 0.987689 0.156432 0
    outer loop
      vertex 43.5734 -33.4635 -0.599999
      vertex 43.5 -33 -4.1
      vertex 43.5 -33 -0.599999
    endloop
  endfacet
  facet normal 0.987689 0.156432 0
    outer loop
      vertex 43.5 -33 -4.1
      vertex 43.5734 -33.4635 -0.599999
      vertex 43.5734 -33.4635 -4.1
    endloop
  endfacet
  facet normal 0.891005 -0.453993 0
    outer loop
      vertex 43.5734 -32.5365 -0.599999
      vertex 43.7865 -32.1183 -4.1
      vertex 43.7865 -32.1183 -0.599999
    endloop
  endfacet
  facet normal 0.891005 -0.453993 0
    outer loop
      vertex 43.7865 -32.1183 -4.1
      vertex 43.5734 -32.5365 -0.599999
      vertex 43.5734 -32.5365 -4.1
    endloop
  endfacet
  facet normal -0.891007 0.45399 0
    outer loop
      vertex 46.2135 -33.8817 -4.1
      vertex 46.4266 -33.4635 -0.599999
      vertex 46.4266 -33.4635 -4.1
    endloop
  endfacet
  facet normal -0.891007 0.45399 0
    outer loop
      vertex 46.4266 -33.4635 -0.599999
      vertex 46.2135 -33.8817 -4.1
      vertex 46.2135 -33.8817 -0.599999
    endloop
  endfacet
  facet normal 0.707111 0.707103 0
    outer loop
      vertex 44.1183 -34.2135 -0.599999
      vertex 43.7865 -33.8817 -4.1
      vertex 43.7865 -33.8817 -0.599999
    endloop
  endfacet
  facet normal 0.707111 0.707103 0
    outer loop
      vertex 43.7865 -33.8817 -4.1
      vertex 44.1183 -34.2135 -0.599999
      vertex 44.1183 -34.2135 -4.1
    endloop
  endfacet
  facet normal -0.45399 0.891007 0
    outer loop
      vertex 45.8817 -34.2135 -4.1
      vertex 45.4635 -34.4266 -0.599999
      vertex 45.8817 -34.2135 -0.599999
    endloop
  endfacet
  facet normal -0.45399 0.891007 0
    outer loop
      vertex 45.4635 -34.4266 -0.599999
      vertex 45.8817 -34.2135 -4.1
      vertex 45.4635 -34.4266 -4.1
    endloop
  endfacet
  facet normal -0.707107 0.707107 0
    outer loop
      vertex 45.8817 -34.2135 -4.1
      vertex 46.2135 -33.8817 -0.599999
      vertex 46.2135 -33.8817 -4.1
    endloop
  endfacet
  facet normal -0.707107 0.707107 0
    outer loop
      vertex 46.2135 -33.8817 -0.599999
      vertex 45.8817 -34.2135 -4.1
      vertex 45.8817 -34.2135 -0.599999
    endloop
  endfacet
  facet normal -0.987687 0.15644 0
    outer loop
      vertex 46.4266 -33.4635 -4.1
      vertex 46.5 -33 -0.599999
      vertex 46.5 -33 -4.1
    endloop
  endfacet
  facet normal -0.987687 0.15644 0
    outer loop
      vertex 46.5 -33 -0.599999
      vertex 46.4266 -33.4635 -4.1
      vertex 46.4266 -33.4635 -0.599999
    endloop
  endfacet
  facet normal -0.156432 -0.987689 0
    outer loop
      vertex 45 -31.5 -4.1
      vertex 45.4635 -31.5734 -0.599999
      vertex 45 -31.5 -0.599999
    endloop
  endfacet
  facet normal -0.156432 -0.987689 -0
    outer loop
      vertex 45.4635 -31.5734 -0.599999
      vertex 45 -31.5 -4.1
      vertex 45.4635 -31.5734 -4.1
    endloop
  endfacet
  facet normal 0.987689 -0.156432 0
    outer loop
      vertex 43.5 -33 -0.599999
      vertex 43.5734 -32.5365 -4.1
      vertex 43.5734 -32.5365 -0.599999
    endloop
  endfacet
  facet normal 0.987689 -0.156432 0
    outer loop
      vertex 43.5734 -32.5365 -4.1
      vertex 43.5 -33 -0.599999
      vertex 43.5 -33 -4.1
    endloop
  endfacet
  facet normal -0.15644 0.987687 0
    outer loop
      vertex 45.4635 -34.4266 -4.1
      vertex 45 -34.5 -0.599999
      vertex 45.4635 -34.4266 -0.599999
    endloop
  endfacet
  facet normal -0.15644 0.987687 0
    outer loop
      vertex 45 -34.5 -0.599999
      vertex 45.4635 -34.4266 -4.1
      vertex 45 -34.5 -4.1
    endloop
  endfacet
  facet normal 0.15644 0.987687 -0
    outer loop
      vertex 45 -34.5 -4.1
      vertex 44.5365 -34.4266 -0.599999
      vertex 45 -34.5 -0.599999
    endloop
  endfacet
  facet normal 0.15644 0.987687 0
    outer loop
      vertex 44.5365 -34.4266 -0.599999
      vertex 45 -34.5 -4.1
      vertex 44.5365 -34.4266 -4.1
    endloop
  endfacet
  facet normal 0.453986 0.891009 -0
    outer loop
      vertex 44.5365 -34.4266 -4.1
      vertex 44.1183 -34.2135 -0.599999
      vertex 44.5365 -34.4266 -0.599999
    endloop
  endfacet
  facet normal 0.453986 0.891009 0
    outer loop
      vertex 44.1183 -34.2135 -0.599999
      vertex 44.5365 -34.4266 -4.1
      vertex 44.1183 -34.2135 -4.1
    endloop
  endfacet
  facet normal -1 0 0
    outer loop
      vertex -51.29 -40.27 -5
      vertex -51.29 40.27 5
      vertex -51.29 40.27 -5
    endloop
  endfacet
  facet normal -1 -0 0
    outer loop
      vertex -51.29 40.27 5
      vertex -51.29 -40.27 -5
      vertex -51.29 -40.27 5
    endloop
  endfacet
  facet normal 0 0 1
    outer loop
      vertex 51.29 40.27 5
      vertex 49.29 38.27 5
      vertex 51.29 -40.27 5
    endloop
  endfacet
  facet normal 0 0 1
    outer loop
      vertex 51.29 40.27 5
      vertex -49.29 38.27 5
      vertex 49.29 38.27 5
    endloop
  endfacet
  facet normal 0 0 1
    outer loop
      vertex -49.29 38.27 5
      vertex -51.29 40.27 5
      vertex -49.29 -38.27 5
    endloop
  endfacet
  facet normal -0 0 1
    outer loop
      vertex -51.29 40.27 5
      vertex -49.29 38.27 5
      vertex 51.29 40.27 5
    endloop
  endfacet
  facet normal -0 0 1
    outer loop
      vertex 49.29 -38.27 5
      vertex 51.29 -40.27 5
      vertex 49.29 38.27 5
    endloop
  endfacet
  facet normal -0 0 1
    outer loop
      vertex -49.29 -38.27 5
      vertex 51.29 -40.27 5
      vertex 49.29 -38.27 5
    endloop
  endfacet
  facet normal 0 0 1
    outer loop
      vertex -49.29 -38.27 5
      vertex -51.29 -40.27 5
      vertex 51.29 -40.27 5
    endloop
  endfacet
  facet normal 0 0 1
    outer loop
      vertex -51.29 -40.27 5
      vertex -49.29 -38.27 5
      vertex -51.29 40.27 5
    endloop
  endfacet
  facet normal 1 -0 0
    outer loop
      vertex 51.29 -40.27 5
      vertex 51.29 40.27 -5
      vertex 51.29 40.27 5
    endloop
  endfacet
  facet normal 1 0 0
    outer loop
      vertex 51.29 40.27 -5
      vertex 51.29 -40.27 5
      vertex 51.29 -40.27 -5
    endloop
  endfacet
  facet normal 0 0 -1
    outer loop
      vertex 51.29 -40.27 -5
      vertex 47.8 -27.17 -5
      vertex 51.29 40.27 -5
    endloop
  endfacet
  facet normal 0 0 -1
    outer loop
      vertex 51.29 -40.27 -5
      vertex -41.85 -27.17 -5
      vertex 47.8 -27.17 -5
    endloop
  endfacet
  facet normal -0 0 -1
    outer loop
      vertex -41.85 -27.17 -5
      vertex -51.29 -40.27 -5
      vertex -41.85 27.17 -5
    endloop
  endfacet
  facet normal 0 0 -1
    outer loop
      vertex -51.29 -40.27 -5
      vertex -41.85 -27.17 -5
      vertex 51.29 -40.27 -5
    endloop
  endfacet
  facet normal 0 0 -1
    outer loop
      vertex 47.8 27.17 -5
      vertex 51.29 40.27 -5
      vertex 47.8 -27.17 -5
    endloop
  endfacet
  facet normal 0 0 -1
    outer loop
      vertex -41.85 27.17 -5
      vertex 51.29 40.27 -5
      vertex 47.8 27.17 -5
    endloop
  endfacet
  facet normal 0 0 -1
    outer loop
      vertex -41.85 27.17 -5
      vertex -51.29 40.27 -5
      vertex 51.29 40.27 -5
    endloop
  endfacet
  facet normal 0 0 -1
    outer loop
      vertex -51.29 40.27 -5
      vertex -41.85 27.17 -5
      vertex -51.29 -40.27 -5
    endloop
  endfacet
  facet normal 0 -1 0
    outer loop
      vertex -51.29 -40.27 -5
      vertex 51.29 -40.27 5
      vertex -51.29 -40.27 5
    endloop
  endfacet
  facet normal 0 -1 -0
    outer loop
      vertex 51.29 -40.27 5
      vertex -51.29 -40.27 -5
      vertex 51.29 -40.27 -5
    endloop
  endfacet
  facet normal 0 1 -0
    outer loop
      vertex 51.29 40.27 -5
      vertex -51.29 40.27 5
      vertex 51.29 40.27 5
    endloop
  endfacet
  facet normal 0 1 0
    outer loop
      vertex -51.29 40.27 5
      vertex 51.29 40.27 -5
      vertex -51.29 40.27 -5
    endloop
  endfacet
  facet normal 1 -0 0
    outer loop
      vertex -49.29 -38.27 5
      vertex -49.29 38.27 -0.599999
      vertex -49.29 38.27 5
    endloop
  endfacet
  facet normal 1 0 0
    outer loop
      vertex -49.29 38.27 -0.599999
      vertex -49.29 -38.27 5
      vertex -49.29 -38.27 -0.599999
    endloop
  endfacet
  facet normal -1 0 0
    outer loop
      vertex 49.29 -38.27 -0.599999
      vertex 49.29 38.27 5
      vertex 49.29 38.27 -0.599999
    endloop
  endfacet
  facet normal -1 -0 0
    outer loop
      vertex 49.29 38.27 5
      vertex 49.29 -38.27 -0.599999
      vertex 49.29 -38.27 5
    endloop
  endfacet
  facet normal 0 0 1
    outer loop
      vertex 49.15 -28.9 -0.599999
      vertex 46.4266 -32.5365 -0.599999
      vertex 46.5 -33 -0.599999
    endloop
  endfacet
  facet normal 0 0 1
    outer loop
      vertex 49.15 -28.9 -0.599999
      vertex 46.2135 -32.1183 -0.599999
      vertex 46.4266 -32.5365 -0.599999
    endloop
  endfacet
  facet normal 0 0 1
    outer loop
      vertex 49.15 -28.9 -0.599999
      vertex 45.8817 -31.7865 -0.599999
      vertex 46.2135 -32.1183 -0.599999
    endloop
  endfacet
  facet normal 0 0 1
    outer loop
      vertex 49.15 -28.9 -0.599999
      vertex 45.4635 -31.5734 -0.599999
      vertex 45.8817 -31.7865 -0.599999
    endloop
  endfacet
  facet normal 0 0 1
    outer loop
      vertex 49.15 -28.9 -0.599999
      vertex 45 -31.5 -0.599999
      vertex 45.4635 -31.5734 -0.599999
    endloop
  endfacet
  facet normal 0 0 1
    outer loop
      vertex 49.15 -28.9 -0.599999
      vertex 44.5365 -31.5734 -0.599999
      vertex 45 -31.5 -0.599999
    endloop
  endfacet
  facet normal 0 0 1
    outer loop
      vertex 49.15 -28.9 -0.599999
      vertex 44.1183 -31.7865 -0.599999
      vertex 44.5365 -31.5734 -0.599999
    endloop
  endfacet
  facet normal 0 0 1
    outer loop
      vertex 43.5734 -32.5365 -0.599999
      vertex -43.5 -33 -0.599999
      vertex 43.5 -33 -0.599999
    endloop
  endfacet
  facet normal 0 0 1
    outer loop
      vertex -43.5734 -32.5365 -0.599999
      vertex 43.5734 -32.5365 -0.599999
      vertex 43.7865 -32.1183 -0.599999
    endloop
  endfacet
  facet normal 0 0 1
    outer loop
      vertex -43.7865 -32.1183 -0.599999
      vertex 43.7865 -32.1183 -0.599999
      vertex 44.1183 -31.7865 -0.599999
    endloop
  endfacet
  facet normal 0 0 1
    outer loop
      vertex -44.1183 -31.7865 -0.599999
      vertex 44.1183 -31.7865 -0.599999
      vertex 49.15 -28.9 -0.599999
    endloop
  endfacet
  facet normal 0 0 1
    outer loop
      vertex 43.5734 -32.5365 -0.599999
      vertex -43.5734 -32.5365 -0.599999
      vertex -43.5 -33 -0.599999
    endloop
  endfacet
  facet normal 0 0 1
    outer loop
      vertex 43.7865 -32.1183 -0.599999
      vertex -43.7865 -32.1183 -0.599999
      vertex -43.5734 -32.5365 -0.599999
    endloop
  endfacet
  facet normal 0 0 1
    outer loop
      vertex 44.1183 -31.7865 -0.599999
      vertex -44.1183 -31.7865 -0.599999
      vertex -43.7865 -32.1183 -0.599999
    endloop
  endfacet
  facet normal -0 0 1
    outer loop
      vertex -49.15 -28.9 -0.599999
      vertex -44.1183 -31.7865 -0.599999
      vertex 49.15 -28.9 -0.599999
    endloop
  endfacet
  facet normal 0 0 1
    outer loop
      vertex -44.1183 -31.7865 -0.599999
      vertex -49.15 -28.9 -0.599999
      vertex -44.5365 -31.5734 -0.599999
    endloop
  endfacet
  facet normal 0 0 1
    outer loop
      vertex -46.4266 -32.5365 -0.599999
      vertex -49.15 -28.9 -0.599999
      vertex -46.5 -33 -0.599999
    endloop
  endfacet
  facet normal 0 0 1
    outer loop
      vertex -46.2135 -32.1183 -0.599999
      vertex -49.15 -28.9 -0.599999
      vertex -46.4266 -32.5365 -0.599999
    endloop
  endfacet
  facet normal 0 0 1
    outer loop
      vertex -45.8817 -31.7865 -0.599999
      vertex -49.15 -28.9 -0.599999
      vertex -46.2135 -32.1183 -0.599999
    endloop
  endfacet
  facet normal 0 0 1
    outer loop
      vertex -45.4635 -31.5734 -0.599999
      vertex -49.15 -28.9 -0.599999
      vertex -45.8817 -31.7865 -0.599999
    endloop
  endfacet
  facet normal 0 0 1
    outer loop
      vertex -45 -31.5 -0.599999
      vertex -49.15 -28.9 -0.599999
      vertex -45.4635 -31.5734 -0.599999
    endloop
  endfacet
  facet normal 0 0 1
    outer loop
      vertex -44.5365 -31.5734 -0.599999
      vertex -49.15 -28.9 -0.599999
      vertex -45 -31.5 -0.599999
    endloop
  endfacet
  facet normal 0 0 1
    outer loop
      vertex 49.29 38.27 -0.599999
      vertex 49.15 28.9 -0.599999
      vertex 49.29 -38.27 -0.599999
    endloop
  endfacet
  facet normal 0 0 1
    outer loop
      vertex 49.29 38.27 -0.599999
      vertex 46.5 33 -0.599999
      vertex 49.15 28.9 -0.599999
    endloop
  endfacet
  facet normal 0 0 1
    outer loop
      vertex 49.29 38.27 -0.599999
      vertex 46.4266 33.4635 -0.599999
      vertex 46.5 33 -0.599999
    endloop
  endfacet
  facet normal 0 0 1
    outer loop
      vertex 49.29 38.27 -0.599999
      vertex 46.2135 33.8817 -0.599999
      vertex 46.4266 33.4635 -0.599999
    endloop
  endfacet
  facet normal 0 0 1
    outer loop
      vertex 49.29 38.27 -0.599999
      vertex 45.8817 34.2135 -0.599999
      vertex 46.2135 33.8817 -0.599999
    endloop
  endfacet
  facet normal 0 0 1
    outer loop
      vertex 49.29 38.27 -0.599999
      vertex 45.4635 34.4266 -0.599999
      vertex 45.8817 34.2135 -0.599999
    endloop
  endfacet
  facet normal 0 0 1
    outer loop
      vertex 49.29 38.27 -0.599999
      vertex 45 34.5 -0.599999
      vertex 45.4635 34.4266 -0.599999
    endloop
  endfacet
  facet normal 0 0 1
    outer loop
      vertex 49.29 38.27 -0.599999
      vertex 44.5365 34.4266 -0.599999
      vertex 45 34.5 -0.599999
    endloop
  endfacet
  facet normal 0 0 1
    outer loop
      vertex 49.29 38.27 -0.599999
      vertex 44.1183 34.2135 -0.599999
      vertex 44.5365 34.4266 -0.599999
    endloop
  endfacet
  facet normal 0 0 1
    outer loop
      vertex 43.5734 33.4635 -0.599999
      vertex -43.5 33 -0.599999
      vertex 43.5 33 -0.599999
    endloop
  endfacet
  facet normal 0 0 1
    outer loop
      vertex -43.5734 33.4635 -0.599999
      vertex 43.5734 33.4635 -0.599999
      vertex 43.7865 33.8817 -0.599999
    endloop
  endfacet
  facet normal 0 0 1
    outer loop
      vertex -43.7865 33.8817 -0.599999
      vertex 43.7865 33.8817 -0.599999
      vertex 44.1183 34.2135 -0.599999
    endloop
  endfacet
  facet normal 0 0 1
    outer loop
      vertex -44.1183 34.2135 -0.599999
      vertex 44.1183 34.2135 -0.599999
      vertex 49.29 38.27 -0.599999
    endloop
  endfacet
  facet normal 0 0 1
    outer loop
      vertex 43.5734 33.4635 -0.599999
      vertex -43.5734 33.4635 -0.599999
      vertex -43.5 33 -0.599999
    endloop
  endfacet
  facet normal 0 0 1
    outer loop
      vertex 43.7865 33.8817 -0.599999
      vertex -43.7865 33.8817 -0.599999
      vertex -43.5734 33.4635 -0.599999
    endloop
  endfacet
  facet normal 0 0 1
    outer loop
      vertex 44.1183 34.2135 -0.599999
      vertex -44.1183 34.2135 -0.599999
      vertex -43.7865 33.8817 -0.599999
    endloop
  endfacet
  facet normal -0 0 1
    outer loop
      vertex -49.29 38.27 -0.599999
      vertex -44.1183 34.2135 -0.599999
      vertex 49.29 38.27 -0.599999
    endloop
  endfacet
  facet normal 0 0 1
    outer loop
      vertex -44.1183 34.2135 -0.599999
      vertex -49.29 38.27 -0.599999
      vertex -44.5365 34.4266 -0.599999
    endloop
  endfacet
  facet normal 0 0 1
    outer loop
      vertex -49.29 38.27 -0.599999
      vertex -46.5 33 -0.599999
      vertex -46.4266 33.4635 -0.599999
    endloop
  endfacet
  facet normal 0 0 1
    outer loop
      vertex -49.29 38.27 -0.599999
      vertex -46.4266 33.4635 -0.599999
      vertex -46.2135 33.8817 -0.599999
    endloop
  endfacet
  facet normal 0 0 1
    outer loop
      vertex -49.15 28.9 -0.599999
      vertex -49.29 38.27 -0.599999
      vertex -49.15 -28.9 -0.599999
    endloop
  endfacet
  facet normal 0 0 1
    outer loop
      vertex -46.5 33 -0.599999
      vertex -49.29 38.27 -0.599999
      vertex -49.15 28.9 -0.599999
    endloop
  endfacet
  facet normal 0 0 1
    outer loop
      vertex -45.8817 34.2135 -0.599999
      vertex -49.29 38.27 -0.599999
      vertex -46.2135 33.8817 -0.599999
    endloop
  endfacet
  facet normal 0 0 1
    outer loop
      vertex -45.4635 34.4266 -0.599999
      vertex -49.29 38.27 -0.599999
      vertex -45.8817 34.2135 -0.599999
    endloop
  endfacet
  facet normal 0 0 1
    outer loop
      vertex -45 34.5 -0.599999
      vertex -49.29 38.27 -0.599999
      vertex -45.4635 34.4266 -0.599999
    endloop
  endfacet
  facet normal 0 0 1
    outer loop
      vertex -44.5365 34.4266 -0.599999
      vertex -49.29 38.27 -0.599999
      vertex -45 34.5 -0.599999
    endloop
  endfacet
  facet normal -0 0 1
    outer loop
      vertex 49.15 -28.9 -0.599999
      vertex 49.29 -38.27 -0.599999
      vertex 49.15 28.9 -0.599999
    endloop
  endfacet
  facet normal -0 0 1
    outer loop
      vertex 46.5 -33 -0.599999
      vertex 49.29 -38.27 -0.599999
      vertex 49.15 -28.9 -0.599999
    endloop
  endfacet
  facet normal -0 0 1
    outer loop
      vertex 46.4266 -33.4635 -0.599999
      vertex 49.29 -38.27 -0.599999
      vertex 46.5 -33 -0.599999
    endloop
  endfacet
  facet normal -0 0 1
    outer loop
      vertex 46.2135 -33.8817 -0.599999
      vertex 49.29 -38.27 -0.599999
      vertex 46.4266 -33.4635 -0.599999
    endloop
  endfacet
  facet normal -0 0 1
    outer loop
      vertex 45.8817 -34.2135 -0.599999
      vertex 49.29 -38.27 -0.599999
      vertex 46.2135 -33.8817 -0.599999
    endloop
  endfacet
  facet normal -0 0 1
    outer loop
      vertex 45.4635 -34.4266 -0.599999
      vertex 49.29 -38.27 -0.599999
      vertex 45.8817 -34.2135 -0.599999
    endloop
  endfacet
  facet normal -0 0 1
    outer loop
      vertex 45 -34.5 -0.599999
      vertex 49.29 -38.27 -0.599999
      vertex 45.4635 -34.4266 -0.599999
    endloop
  endfacet
  facet normal 0 0 1
    outer loop
      vertex 44.5365 -34.4266 -0.599999
      vertex 49.29 -38.27 -0.599999
      vertex 45 -34.5 -0.599999
    endloop
  endfacet
  facet normal 0 0 1
    outer loop
      vertex 44.1183 -34.2135 -0.599999
      vertex 49.29 -38.27 -0.599999
      vertex 44.5365 -34.4266 -0.599999
    endloop
  endfacet
  facet normal -0 0 1
    outer loop
      vertex -43.5 -33 -0.599999
      vertex 43.5734 -33.4635 -0.599999
      vertex 43.5 -33 -0.599999
    endloop
  endfacet
  facet normal 0 0 1
    outer loop
      vertex -43.5734 -33.4635 -0.599999
      vertex 43.5734 -33.4635 -0.599999
      vertex -43.5 -33 -0.599999
    endloop
  endfacet
  facet normal 0 0 1
    outer loop
      vertex 43.5734 -33.4635 -0.599999
      vertex -43.5734 -33.4635 -0.599999
      vertex 43.7865 -33.8817 -0.599999
    endloop
  endfacet
  facet normal 0 0 1
    outer loop
      vertex -43.7865 -33.8817 -0.599999
      vertex 43.7865 -33.8817 -0.599999
      vertex -43.5734 -33.4635 -0.599999
    endloop
  endfacet
  facet normal 0 0 1
    outer loop
      vertex 43.7865 -33.8817 -0.599999
      vertex -43.7865 -33.8817 -0.599999
      vertex 44.1183 -34.2135 -0.599999
    endloop
  endfacet
  facet normal 0 0 1
    outer loop
      vertex -44.1183 -34.2135 -0.599999
      vertex 44.1183 -34.2135 -0.599999
      vertex -43.7865 -33.8817 -0.599999
    endloop
  endfacet
  facet normal 0 0 1
    outer loop
      vertex 44.1183 -34.2135 -0.599999
      vertex -44.1183 -34.2135 -0.599999
      vertex 49.29 -38.27 -0.599999
    endloop
  endfacet
  facet normal 0 0 1
    outer loop
      vertex -49.29 -38.27 -0.599999
      vertex -44.1183 -34.2135 -0.599999
      vertex -44.5365 -34.4266 -0.599999
    endloop
  endfacet
  facet normal 0 0 1
    outer loop
      vertex -49.29 -38.27 -0.599999
      vertex -44.5365 -34.4266 -0.599999
      vertex -45 -34.5 -0.599999
    endloop
  endfacet
  facet normal 0 0 1
    outer loop
      vertex -49.29 -38.27 -0.599999
      vertex -46.5 -33 -0.599999
      vertex -49.15 -28.9 -0.599999
    endloop
  endfacet
  facet normal 0 0 1
    outer loop
      vertex -46.5 -33 -0.599999
      vertex -49.29 -38.27 -0.599999
      vertex -46.4266 -33.4635 -0.599999
    endloop
  endfacet
  facet normal 0 0 1
    outer loop
      vertex -44.1183 -34.2135 -0.599999
      vertex -49.29 -38.27 -0.599999
      vertex 49.29 -38.27 -0.599999
    endloop
  endfacet
  facet normal 0 0 1
    outer loop
      vertex -45.4635 -34.4266 -0.599999
      vertex -49.29 -38.27 -0.599999
      vertex -45 -34.5 -0.599999
    endloop
  endfacet
  facet normal 0 0 1
    outer loop
      vertex -45.8817 -34.2135 -0.599999
      vertex -49.29 -38.27 -0.599999
      vertex -45.4635 -34.4266 -0.599999
    endloop
  endfacet
  facet normal 0 0 1
    outer loop
      vertex -46.2135 -33.8817 -0.599999
      vertex -49.29 -38.27 -0.599999
      vertex -45.8817 -34.2135 -0.599999
    endloop
  endfacet
  facet normal 0 0 1
    outer loop
      vertex -46.4266 -33.4635 -0.599999
      vertex -49.29 -38.27 -0.599999
      vertex -46.2135 -33.8817 -0.599999
    endloop
  endfacet
  facet normal 0 0 1
    outer loop
      vertex -49.29 -38.27 -0.599999
      vertex -49.15 -28.9 -0.599999
      vertex -49.29 38.27 -0.599999
    endloop
  endfacet
  facet normal -0 0 1
    outer loop
      vertex 46.4266 32.5365 -0.599999
      vertex 49.15 28.9 -0.599999
      vertex 46.5 33 -0.599999
    endloop
  endfacet
  facet normal -0 0 1
    outer loop
      vertex 46.2135 32.1183 -0.599999
      vertex 49.15 28.9 -0.599999
      vertex 46.4266 32.5365 -0.599999
    endloop
  endfacet
  facet normal -0 0 1
    outer loop
      vertex 45.8817 31.7865 -0.599999
      vertex 49.15 28.9 -0.599999
      vertex 46.2135 32.1183 -0.599999
    endloop
  endfacet
  facet normal -0 0 1
    outer loop
      vertex 45.4635 31.5734 -0.599999
      vertex 49.15 28.9 -0.599999
      vertex 45.8817 31.7865 -0.599999
    endloop
  endfacet
  facet normal -0 0 1
    outer loop
      vertex 45 31.5 -0.599999
      vertex 49.15 28.9 -0.599999
      vertex 45.4635 31.5734 -0.599999
    endloop
  endfacet
  facet normal 0 0 1
    outer loop
      vertex 44.5365 31.5734 -0.599999
      vertex 49.15 28.9 -0.599999
      vertex 45 31.5 -0.599999
    endloop
  endfacet
  facet normal 0 0 1
    outer loop
      vertex 44.1183 31.7865 -0.599999
      vertex 49.15 28.9 -0.599999
      vertex 44.5365 31.5734 -0.599999
    endloop
  endfacet
  facet normal -0 0 1
    outer loop
      vertex -43.5 33 -0.599999
      vertex 43.5734 32.5365 -0.599999
      vertex 43.5 33 -0.599999
    endloop
  endfacet
  facet normal 0 0 1
    outer loop
      vertex -43.5734 32.5365 -0.599999
      vertex 43.5734 32.5365 -0.599999
      vertex -43.5 33 -0.599999
    endloop
  endfacet
  facet normal 0 0 1
    outer loop
      vertex 43.5734 32.5365 -0.599999
      vertex -43.5734 32.5365 -0.599999
      vertex 43.7865 32.1183 -0.599999
    endloop
  endfacet
  facet normal 0 0 1
    outer loop
      vertex -43.7865 32.1183 -0.599999
      vertex 43.7865 32.1183 -0.599999
      vertex -43.5734 32.5365 -0.599999
    endloop
  endfacet
  facet normal 0 0 1
    outer loop
      vertex 43.7865 32.1183 -0.599999
      vertex -43.7865 32.1183 -0.599999
      vertex 44.1183 31.7865 -0.599999
    endloop
  endfacet
  facet normal 0 0 1
    outer loop
      vertex -44.1183 31.7865 -0.599999
      vertex 44.1183 31.7865 -0.599999
      vertex -43.7865 32.1183 -0.599999
    endloop
  endfacet
  facet normal 0 0 1
    outer loop
      vertex 44.1183 31.7865 -0.599999
      vertex -44.1183 31.7865 -0.599999
      vertex 49.15 28.9 -0.599999
    endloop
  endfacet
  facet normal 0 0 1
    outer loop
      vertex -49.15 28.9 -0.599999
      vertex -44.1183 31.7865 -0.599999
      vertex -44.5365 31.5734 -0.599999
    endloop
  endfacet
  facet normal 0 0 1
    outer loop
      vertex -49.15 28.9 -0.599999
      vertex -44.5365 31.5734 -0.599999
      vertex -45 31.5 -0.599999
    endloop
  endfacet
  facet normal 0 0 1
    outer loop
      vertex -44.1183 31.7865 -0.599999
      vertex -49.15 28.9 -0.599999
      vertex 49.15 28.9 -0.599999
    endloop
  endfacet
  facet normal 0 0 1
    outer loop
      vertex -45.4635 31.5734 -0.599999
      vertex -49.15 28.9 -0.599999
      vertex -45 31.5 -0.599999
    endloop
  endfacet
  facet normal 0 0 1
    outer loop
      vertex -45.8817 31.7865 -0.599999
      vertex -49.15 28.9 -0.599999
      vertex -45.4635 31.5734 -0.599999
    endloop
  endfacet
  facet normal 0 0 1
    outer loop
      vertex -46.2135 32.1183 -0.599999
      vertex -49.15 28.9 -0.599999
      vertex -45.8817 31.7865 -0.599999
    endloop
  endfacet
  facet normal 0 0 1
    outer loop
      vertex -46.4266 32.5365 -0.599999
      vertex -49.15 28.9 -0.599999
      vertex -46.2135 32.1183 -0.599999
    endloop
  endfacet
  facet normal 0 0 1
    outer loop
      vertex -49.15 28.9 -0.599999
      vertex -46.4266 32.5365 -0.599999
      vertex -46.5 33 -0.599999
    endloop
  endfacet
  facet normal 0 1 -0
    outer loop
      vertex 49.29 -38.27 -0.599999
      vertex -49.29 -38.27 5
      vertex 49.29 -38.27 5
    endloop
  endfacet
  facet normal 0 1 0
    outer loop
      vertex -49.29 -38.27 5
      vertex 49.29 -38.27 -0.599999
      vertex -49.29 -38.27 -0.599999
    endloop
  endfacet
  facet normal 0 -1 0
    outer loop
      vertex -49.29 38.27 -0.599999
      vertex 49.29 38.27 5
      vertex -49.29 38.27 5
    endloop
  endfacet
  facet normal 0 -1 -0
    outer loop
      vertex 49.29 38.27 5
      vertex -49.29 38.27 -0.599999
      vertex 49.29 38.27 -0.599999
    endloop
  endfacet
  facet normal 1 -0 0
    outer loop
      vertex -49.15 -28.9 -0.599999
      vertex -49.15 28.9 -4
      vertex -49.15 28.9 -0.599999
    endloop
  endfacet
  facet normal 1 0 0
    outer loop
      vertex -49.15 28.9 -4
      vertex -49.15 -28.9 -0.599999
      vertex -49.15 -28.9 -4
    endloop
  endfacet
  facet normal -1 0 0
    outer loop
      vertex 49.15 -28.9 -4
      vertex 49.15 28.9 -0.599999
      vertex 49.15 28.9 -4
    endloop
  endfacet
  facet normal -1 -0 0
    outer loop
      vertex 49.15 28.9 -0.599999
      vertex 49.15 -28.9 -4
      vertex 49.15 -28.9 -0.599999
    endloop
  endfacet
  facet normal 0 -1 0
    outer loop
      vertex -49.15 28.9 -4
      vertex 49.15 28.9 -0.599999
      vertex -49.15 28.9 -0.599999
    endloop
  endfacet
  facet normal 0 -1 -0
    outer loop
      vertex 49.15 28.9 -0.599999
      vertex -49.15 28.9 -4
      vertex 49.15 28.9 -4
    endloop
  endfacet
  facet normal 0 0 1
    outer loop
      vertex 49.15 28.9 -4
      vertex 46.85 26.22 -4
      vertex 49.15 -28.9 -4
    endloop
  endfacet
  facet normal 0 0 1
    outer loop
      vertex 49.15 28.9 -4
      vertex -40.9 26.22 -4
      vertex 46.85 26.22 -4
    endloop
  endfacet
  facet normal 0 0 1
    outer loop
      vertex -40.9 26.22 -4
      vertex -49.15 28.9 -4
      vertex -40.9 -26.22 -4
    endloop
  endfacet
  facet normal -0 0 1
    outer loop
      vertex -49.15 28.9 -4
      vertex -40.9 26.22 -4
      vertex 49.15 28.9 -4
    endloop
  endfacet
  facet normal -0 0 1
    outer loop
      vertex 46.85 -26.22 -4
      vertex 49.15 -28.9 -4
      vertex 46.85 26.22 -4
    endloop
  endfacet
  facet normal -0 0 1
    outer loop
      vertex -40.9 -26.22 -4
      vertex 49.15 -28.9 -4
      vertex 46.85 -26.22 -4
    endloop
  endfacet
  facet normal 0 0 1
    outer loop
      vertex -40.9 -26.22 -4
      vertex -49.15 -28.9 -4
      vertex 49.15 -28.9 -4
    endloop
  endfacet
  facet normal 0 0 1
    outer loop
      vertex -49.15 -28.9 -4
      vertex -40.9 -26.22 -4
      vertex -49.15 28.9 -4
    endloop
  endfacet
  facet normal 0 1 -0
    outer loop
      vertex 49.15 -28.9 -4
      vertex -49.15 -28.9 -0.599999
      vertex 49.15 -28.9 -0.599999
    endloop
  endfacet
  facet normal 0 1 0
    outer loop
      vertex -49.15 -28.9 -0.599999
      vertex 49.15 -28.9 -4
      vertex -49.15 -28.9 -4
    endloop
  endfacet
  facet normal 1 -0 0
    outer loop
      vertex -40.9 -26.22 -4
      vertex -40.9 26.22 -4.05
      vertex -40.9 26.22 -4
    endloop
  endfacet
  facet normal 1 0 0
    outer loop
      vertex -40.9 26.22 -4.05
      vertex -40.9 -26.22 -4
      vertex -40.9 -26.22 -4.05
    endloop
  endfacet
  facet normal -1 0 0
    outer loop
      vertex 46.85 -26.22 -4.05
      vertex 46.85 26.22 -4
      vertex 46.85 26.22 -4.05
    endloop
  endfacet
  facet normal -1 -0 0
    outer loop
      vertex 46.85 26.22 -4
      vertex 46.85 -26.22 -4.05
      vertex 46.85 -26.22 -4
    endloop
  endfacet
  facet normal 0 1 -0
    outer loop
      vertex 46.85 -26.22 -4.05
      vertex -40.9 -26.22 -4
      vertex 46.85 -26.22 -4
    endloop
  endfacet
  facet normal 0 1 0
    outer loop
      vertex -40.9 -26.22 -4
      vertex 46.85 -26.22 -4.05
      vertex -40.9 -26.22 -4.05
    endloop
  endfacet
  facet normal 0 -1 0
    outer loop
      vertex -40.9 26.22 -4.05
      vertex 46.85 26.22 -4
      vertex -40.9 26.22 -4
    endloop
  endfacet
  facet normal 0 -1 -0
    outer loop
      vertex 46.85 26.22 -4
      vertex -40.9 26.22 -4.05
      vertex 46.85 26.22 -4.05
    endloop
  endfacet
  facet normal 0.707108 0 -0.707105
    outer loop
      vertex -40.9 -26.22 -4.05
      vertex -41.85 27.17 -5
      vertex -40.9 26.22 -4.05
    endloop
  endfacet
  facet normal 0.707108 0 -0.707105
    outer loop
      vertex -41.85 27.17 -5
      vertex -40.9 -26.22 -4.05
      vertex -41.85 -27.17 -5
    endloop
  endfacet
  facet normal -0.707107 0 -0.707107
    outer loop
      vertex 47.8 27.17 -5
      vertex 46.85 -26.22 -4.05
      vertex 46.85 26.22 -4.05
    endloop
  endfacet
  facet normal -0.707107 0 -0.707107
    outer loop
      vertex 46.85 -26.22 -4.05
      vertex 47.8 27.17 -5
      vertex 47.8 -27.17 -5
    endloop
  endfacet
  facet normal 0 -0.707107 -0.707107
    outer loop
      vertex -41.85 27.17 -5
      vertex 46.85 26.22 -4.05
      vertex -40.9 26.22 -4.05
    endloop
  endfacet
  facet normal 0 -0.707107 -0.707107
    outer loop
      vertex 46.85 26.22 -4.05
      vertex -41.85 27.17 -5
      vertex 47.8 27.17 -5
    endloop
  endfacet
  facet normal 0 0.707107 -0.707107
    outer loop
      vertex 47.8 -27.17 -5
      vertex -40.9 -26.22 -4.05
      vertex 46.85 -26.22 -4.05
    endloop
  endfacet
  facet normal 0 0.707107 -0.707107
    outer loop
      vertex -40.9 -26.22 -4.05
      vertex 47.8 -27.17 -5
      vertex -41.85 -27.17 -5
    endloop
  endfacet
endsolid OpenSCAD_Model
