solid OpenSCAD_Model
  facet normal 0 -1 0
    outer loop
      vertex 4.29094 2.51096 20
      vertex 51.7091 2.51096 22
      vertex 4.29094 2.51096 22
    endloop
  endfacet
  facet normal 0 -1 -0
    outer loop
      vertex 51.7091 2.51096 22
      vertex 4.29094 2.51096 20
      vertex 51.7091 2.51096 20
    endloop
  endfacet
  facet normal -0.994522 -0.104527 0
    outer loop
      vertex 2.5437 4.08418 20
      vertex 2.5 4.5 22
      vertex 2.5 4.5 20
    endloop
  endfacet
  facet normal -0.994522 -0.104527 0
    outer loop
      vertex 2.5 4.5 22
      vertex 2.5437 4.08418 20
      vertex 2.5437 4.08418 22
    endloop
  endfacet
  facet normal 0 0 -1
    outer loop
      vertex 52.8383 3.01371 22
      vertex 56 2 22
      vertex 55.9563 1.58418 22
    endloop
  endfacet
  facet normal 0 0 -1
    outer loop
      vertex 56 2 22
      vertex 53.5 4.5 22
      vertex 56 44 22
    endloop
  endfacet
  facet normal 0 0 -1
    outer loop
      vertex 52.8383 3.01371 22
      vertex 55.9563 1.58418 22
      vertex 55.8271 1.18653 22
    endloop
  endfacet
  facet normal 0 0 -1
    outer loop
      vertex 53.5 41.5 22
      vertex 56 44 22
      vertex 53.5 4.5 22
    endloop
  endfacet
  facet normal 0 0 -1
    outer loop
      vertex 52.8383 3.01371 22
      vertex 55.8271 1.18653 22
      vertex 55.618 0.824429 22
    endloop
  endfacet
  facet normal 0 0 -1
    outer loop
      vertex 53.4563 41.9158 22
      vertex 56 44 22
      vertex 53.5 41.5 22
    endloop
  endfacet
  facet normal 0 0 -1
    outer loop
      vertex 52.8383 3.01371 22
      vertex 55.618 0.824429 22
      vertex 55.3383 0.51371 22
    endloop
  endfacet
  facet normal 0 0 -1
    outer loop
      vertex 53.3271 42.3135 22
      vertex 56 44 22
      vertex 53.4563 41.9158 22
    endloop
  endfacet
  facet normal 0 0 -1
    outer loop
      vertex 52.8383 3.01371 22
      vertex 55.3383 0.51371 22
      vertex 55 0.267949 22
    endloop
  endfacet
  facet normal 0 0 -1
    outer loop
      vertex 53.118 42.6756 22
      vertex 56 44 22
      vertex 53.3271 42.3135 22
    endloop
  endfacet
  facet normal 0 0 -1
    outer loop
      vertex 52.8383 3.01371 22
      vertex 55 0.267949 22
      vertex 54.618 0.0978861 22
    endloop
  endfacet
  facet normal 0 0 -1
    outer loop
      vertex 52.8383 42.9863 22
      vertex 56 44 22
      vertex 53.118 42.6756 22
    endloop
  endfacet
  facet normal 0 0 -1
    outer loop
      vertex 52.8383 3.01371 22
      vertex 54.618 0.0978861 22
      vertex 54.2091 0.0109558 22
    endloop
  endfacet
  facet normal -0 0 -1
    outer loop
      vertex 56 44 22
      vertex 52.8383 42.9863 22
      vertex 55.9563 44.4158 22
    endloop
  endfacet
  facet normal -0 0 -1
    outer loop
      vertex 55.9563 44.4158 22
      vertex 52.8383 42.9863 22
      vertex 55.8271 44.8135 22
    endloop
  endfacet
  facet normal 0 0 -1
    outer loop
      vertex 56 2 22
      vertex 53.4563 4.08418 22
      vertex 53.5 4.5 22
    endloop
  endfacet
  facet normal 0 0 -1
    outer loop
      vertex 56 2 22
      vertex 53.3271 3.68653 22
      vertex 53.4563 4.08418 22
    endloop
  endfacet
  facet normal 0 0 -1
    outer loop
      vertex 56 2 22
      vertex 53.118 3.32443 22
      vertex 53.3271 3.68653 22
    endloop
  endfacet
  facet normal 0 0 -1
    outer loop
      vertex 56 2 22
      vertex 52.8383 3.01371 22
      vertex 53.118 3.32443 22
    endloop
  endfacet
  facet normal 0 0 -1
    outer loop
      vertex 54.2091 0.0109558 22
      vertex 52.5 2.76795 22
      vertex 52.8383 3.01371 22
    endloop
  endfacet
  facet normal 0 0 -1
    outer loop
      vertex 54.2091 0.0109558 22
      vertex 52.118 2.59789 22
      vertex 52.5 2.76795 22
    endloop
  endfacet
  facet normal 0 0 -1
    outer loop
      vertex 54.2091 0.0109558 22
      vertex 51.7091 2.51096 22
      vertex 52.118 2.59789 22
    endloop
  endfacet
  facet normal 0 0 -1
    outer loop
      vertex 54.2091 0.0109558 22
      vertex 4.29094 2.51096 22
      vertex 51.7091 2.51096 22
    endloop
  endfacet
  facet normal -0 0 -1
    outer loop
      vertex 2.5437 4.08418 22
      vertex 0 2 22
      vertex 2.5 4.5 22
    endloop
  endfacet
  facet normal -0 0 -1
    outer loop
      vertex 2.67291 3.68653 22
      vertex 0 2 22
      vertex 2.5437 4.08418 22
    endloop
  endfacet
  facet normal -0 0 -1
    outer loop
      vertex 2.88197 3.32443 22
      vertex 0 2 22
      vertex 2.67291 3.68653 22
    endloop
  endfacet
  facet normal -0 0 -1
    outer loop
      vertex 3.16174 3.01371 22
      vertex 0 2 22
      vertex 2.88197 3.32443 22
    endloop
  endfacet
  facet normal 0 0 -1
    outer loop
      vertex 0 2 22
      vertex 3.16174 3.01371 22
      vertex 1.79094 0.0109558 22
    endloop
  endfacet
  facet normal -0 0 -1
    outer loop
      vertex 3.5 2.76795 22
      vertex 1.79094 0.0109558 22
      vertex 3.16174 3.01371 22
    endloop
  endfacet
  facet normal -0 0 -1
    outer loop
      vertex 3.88197 2.59789 22
      vertex 1.79094 0.0109558 22
      vertex 3.5 2.76795 22
    endloop
  endfacet
  facet normal -0 0 -1
    outer loop
      vertex 4.29094 2.51096 22
      vertex 1.79094 0.0109558 22
      vertex 3.88197 2.59789 22
    endloop
  endfacet
  facet normal 0 0 -1
    outer loop
      vertex 1.79094 0.0109558 22
      vertex 4.29094 2.51096 22
      vertex 54.2091 0.0109558 22
    endloop
  endfacet
  facet normal -0 0 -1
    outer loop
      vertex 55.8271 44.8135 22
      vertex 52.8383 42.9863 22
      vertex 55.618 45.1756 22
    endloop
  endfacet
  facet normal -0 0 -1
    outer loop
      vertex 55.618 45.1756 22
      vertex 52.8383 42.9863 22
      vertex 55.3383 45.4863 22
    endloop
  endfacet
  facet normal -0 0 -1
    outer loop
      vertex 55.3383 45.4863 22
      vertex 52.8383 42.9863 22
      vertex 55 45.732 22
    endloop
  endfacet
  facet normal -0 0 -1
    outer loop
      vertex 55 45.732 22
      vertex 52.8383 42.9863 22
      vertex 54.618 45.9021 22
    endloop
  endfacet
  facet normal -0 0 -1
    outer loop
      vertex 54.618 45.9021 22
      vertex 52.8383 42.9863 22
      vertex 54.2091 45.989 22
    endloop
  endfacet
  facet normal 0 0 -1
    outer loop
      vertex 52.5 43.232 22
      vertex 54.2091 45.989 22
      vertex 52.8383 42.9863 22
    endloop
  endfacet
  facet normal 0 0 -1
    outer loop
      vertex 52.118 43.4021 22
      vertex 54.2091 45.989 22
      vertex 52.5 43.232 22
    endloop
  endfacet
  facet normal 0 0 -1
    outer loop
      vertex 51.7091 43.489 22
      vertex 54.2091 45.989 22
      vertex 52.118 43.4021 22
    endloop
  endfacet
  facet normal 0 0 -1
    outer loop
      vertex 4.29094 43.489 22
      vertex 54.2091 45.989 22
      vertex 51.7091 43.489 22
    endloop
  endfacet
  facet normal 0 0 -1
    outer loop
      vertex 4.29094 43.489 22
      vertex 1.79094 45.989 22
      vertex 54.2091 45.989 22
    endloop
  endfacet
  facet normal 0 0 -1
    outer loop
      vertex 3.88197 43.4021 22
      vertex 1.79094 45.989 22
      vertex 4.29094 43.489 22
    endloop
  endfacet
  facet normal 0 0 -1
    outer loop
      vertex 3.5 43.232 22
      vertex 1.79094 45.989 22
      vertex 3.88197 43.4021 22
    endloop
  endfacet
  facet normal 0 0 -1
    outer loop
      vertex 3.16174 42.9863 22
      vertex 1.79094 45.989 22
      vertex 3.5 43.232 22
    endloop
  endfacet
  facet normal 0 0 -1
    outer loop
      vertex 0 44 22
      vertex 3.16174 42.9863 22
      vertex 2.88197 42.6756 22
    endloop
  endfacet
  facet normal 0 0 -1
    outer loop
      vertex 0 44 22
      vertex 2.88197 42.6756 22
      vertex 2.67291 42.3135 22
    endloop
  endfacet
  facet normal 0 0 -1
    outer loop
      vertex 0 44 22
      vertex 2.67291 42.3135 22
      vertex 2.5437 41.9158 22
    endloop
  endfacet
  facet normal 0 0 -1
    outer loop
      vertex 0 44 22
      vertex 2.5437 41.9158 22
      vertex 2.5 41.5 22
    endloop
  endfacet
  facet normal -0 0 -1
    outer loop
      vertex 2.5 4.5 22
      vertex 0 2 22
      vertex 2.5 41.5 22
    endloop
  endfacet
  facet normal 0 0 -1
    outer loop
      vertex 0 2 22
      vertex 1.79094 0.0109558 22
      vertex 1.38197 0.0978861 22
    endloop
  endfacet
  facet normal 0 0 -1
    outer loop
      vertex 0 44 22
      vertex 2.5 41.5 22
      vertex 0 2 22
    endloop
  endfacet
  facet normal 0 0 -1
    outer loop
      vertex 3.16174 42.9863 22
      vertex 1.38197 45.9021 22
      vertex 1.79094 45.989 22
    endloop
  endfacet
  facet normal 0 0 -1
    outer loop
      vertex 0 2 22
      vertex 1.38197 0.0978861 22
      vertex 0.999999 0.267949 22
    endloop
  endfacet
  facet normal 0 0 -1
    outer loop
      vertex 0 2 22
      vertex 0.999999 0.267949 22
      vertex 0.661738 0.51371 22
    endloop
  endfacet
  facet normal 0 0 -1
    outer loop
      vertex 3.16174 42.9863 22
      vertex 0 44 22
      vertex 0.043704 44.4158 22
    endloop
  endfacet
  facet normal 0 0 -1
    outer loop
      vertex 0 2 22
      vertex 0.661738 0.51371 22
      vertex 0.381966 0.824429 22
    endloop
  endfacet
  facet normal 0 0 -1
    outer loop
      vertex 3.16174 42.9863 22
      vertex 1 45.732 22
      vertex 1.38197 45.9021 22
    endloop
  endfacet
  facet normal 0 0 -1
    outer loop
      vertex 0 2 22
      vertex 0.381966 0.824429 22
      vertex 0.172909 1.18653 22
    endloop
  endfacet
  facet normal 0 0 -1
    outer loop
      vertex 3.16174 42.9863 22
      vertex 0.661738 45.4863 22
      vertex 1 45.732 22
    endloop
  endfacet
  facet normal 0 0 -1
    outer loop
      vertex 0 2 22
      vertex 0.172909 1.18653 22
      vertex 0.043704 1.58418 22
    endloop
  endfacet
  facet normal 0 0 -1
    outer loop
      vertex 3.16174 42.9863 22
      vertex 0.381966 45.1756 22
      vertex 0.661738 45.4863 22
    endloop
  endfacet
  facet normal 0 0 -1
    outer loop
      vertex 3.16174 42.9863 22
      vertex 0.172909 44.8135 22
      vertex 0.381966 45.1756 22
    endloop
  endfacet
  facet normal 0 0 -1
    outer loop
      vertex 3.16174 42.9863 22
      vertex 0.043704 44.4158 22
      vertex 0.172909 44.8135 22
    endloop
  endfacet
  facet normal 0.406739 -0.913545 0
    outer loop
      vertex 52.118 2.59789 20
      vertex 52.5 2.76795 22
      vertex 52.118 2.59789 22
    endloop
  endfacet
  facet normal 0.406739 -0.913545 0
    outer loop
      vertex 52.5 2.76795 22
      vertex 52.118 2.59789 20
      vertex 52.5 2.76795 20
    endloop
  endfacet
  facet normal 0.994522 0.104529 0
    outer loop
      vertex 53.5 41.5 22
      vertex 53.4563 41.9158 20
      vertex 53.4563 41.9158 22
    endloop
  endfacet
  facet normal 0.994522 0.104529 0
    outer loop
      vertex 53.4563 41.9158 20
      vertex 53.5 41.5 22
      vertex 53.5 41.5 20
    endloop
  endfacet
  facet normal 1 -0 0
    outer loop
      vertex 53.5 4.5 22
      vertex 53.5 41.5 20
      vertex 53.5 41.5 22
    endloop
  endfacet
  facet normal 1 0 0
    outer loop
      vertex 53.5 41.5 20
      vertex 53.5 4.5 22
      vertex 53.5 4.5 20
    endloop
  endfacet
  facet normal 0.20791 -0.978148 0
    outer loop
      vertex 51.7091 2.51096 20
      vertex 52.118 2.59789 22
      vertex 51.7091 2.51096 22
    endloop
  endfacet
  facet normal 0.20791 -0.978148 0
    outer loop
      vertex 52.118 2.59789 22
      vertex 51.7091 2.51096 20
      vertex 52.118 2.59789 20
    endloop
  endfacet
  facet normal 0.587786 -0.809017 0
    outer loop
      vertex 52.5 2.76795 20
      vertex 52.8383 3.01371 22
      vertex 52.5 2.76795 22
    endloop
  endfacet
  facet normal 0.587786 -0.809017 0
    outer loop
      vertex 52.8383 3.01371 22
      vertex 52.5 2.76795 20
      vertex 52.8383 3.01371 20
    endloop
  endfacet
  facet normal 0.743143 -0.669133 0
    outer loop
      vertex 52.8383 3.01371 22
      vertex 53.118 3.32443 20
      vertex 53.118 3.32443 22
    endloop
  endfacet
  facet normal 0.743143 -0.669133 0
    outer loop
      vertex 53.118 3.32443 20
      vertex 52.8383 3.01371 22
      vertex 52.8383 3.01371 20
    endloop
  endfacet
  facet normal -0.207909 0.978148 0
    outer loop
      vertex 4.29094 43.489 20
      vertex 3.88197 43.4021 22
      vertex 4.29094 43.489 22
    endloop
  endfacet
  facet normal -0.207909 0.978148 0
    outer loop
      vertex 3.88197 43.4021 22
      vertex 4.29094 43.489 20
      vertex 3.88197 43.4021 20
    endloop
  endfacet
  facet normal -0.406746 0.913541 0
    outer loop
      vertex 3.88197 43.4021 20
      vertex 3.5 43.232 22
      vertex 3.88197 43.4021 22
    endloop
  endfacet
  facet normal -0.406746 0.913541 0
    outer loop
      vertex 3.5 43.232 22
      vertex 3.88197 43.4021 20
      vertex 3.5 43.232 20
    endloop
  endfacet
  facet normal -0.58778 0.809021 0
    outer loop
      vertex 3.5 43.232 20
      vertex 3.16174 42.9863 22
      vertex 3.5 43.232 22
    endloop
  endfacet
  facet normal -0.58778 0.809021 0
    outer loop
      vertex 3.16174 42.9863 22
      vertex 3.5 43.232 20
      vertex 3.16174 42.9863 20
    endloop
  endfacet
  facet normal 0.207908 0.978148 -0
    outer loop
      vertex 52.118 43.4021 20
      vertex 51.7091 43.489 22
      vertex 52.118 43.4021 22
    endloop
  endfacet
  facet normal 0.207908 0.978148 0
    outer loop
      vertex 51.7091 43.489 22
      vertex 52.118 43.4021 20
      vertex 51.7091 43.489 20
    endloop
  endfacet
  facet normal -0.743144 -0.669131 0
    outer loop
      vertex 3.16174 3.01371 20
      vertex 2.88197 3.32443 22
      vertex 2.88197 3.32443 20
    endloop
  endfacet
  facet normal -0.743144 -0.669131 0
    outer loop
      vertex 2.88197 3.32443 22
      vertex 3.16174 3.01371 20
      vertex 3.16174 3.01371 22
    endloop
  endfacet
  facet normal -1 0 0
    outer loop
      vertex 2.5 4.5 20
      vertex 2.5 41.5 22
      vertex 2.5 41.5 20
    endloop
  endfacet
  facet normal -1 -0 0
    outer loop
      vertex 2.5 41.5 22
      vertex 2.5 4.5 20
      vertex 2.5 4.5 22
    endloop
  endfacet
  facet normal 0 0 -1
    outer loop
      vertex 51.618 5.32443 20
      vertex 53.5 4.5 20
      vertex 53.4563 4.08418 20
    endloop
  endfacet
  facet normal 0 0 -1
    outer loop
      vertex 53.5 4.5 20
      vertex 52 6.5 20
      vertex 53.5 41.5 20
    endloop
  endfacet
  facet normal 0 0 -1
    outer loop
      vertex 51.3383 5.01371 20
      vertex 53.4563 4.08418 20
      vertex 53.3271 3.68653 20
    endloop
  endfacet
  facet normal 0 0 -1
    outer loop
      vertex 52 40 20
      vertex 53.5 41.5 20
      vertex 52 6.5 20
    endloop
  endfacet
  facet normal 0 0 -1
    outer loop
      vertex 51.3383 5.01371 20
      vertex 53.3271 3.68653 20
      vertex 53.118 3.32443 20
    endloop
  endfacet
  facet normal 0 0 -1
    outer loop
      vertex 51.9563 40.4158 20
      vertex 53.5 41.5 20
      vertex 52 40 20
    endloop
  endfacet
  facet normal 0 0 -1
    outer loop
      vertex 51.3383 5.01371 20
      vertex 53.118 3.32443 20
      vertex 52.8383 3.01371 20
    endloop
  endfacet
  facet normal 0 0 -1
    outer loop
      vertex 51.8271 40.8135 20
      vertex 53.5 41.5 20
      vertex 51.9563 40.4158 20
    endloop
  endfacet
  facet normal 0 0 -1
    outer loop
      vertex 51.3383 5.01371 20
      vertex 52.8383 3.01371 20
      vertex 52.5 2.76795 20
    endloop
  endfacet
  facet normal 0 0 -1
    outer loop
      vertex 51.618 41.1756 20
      vertex 53.5 41.5 20
      vertex 51.8271 40.8135 20
    endloop
  endfacet
  facet normal 0 0 -1
    outer loop
      vertex 51 4.76795 20
      vertex 52.5 2.76795 20
      vertex 52.118 2.59789 20
    endloop
  endfacet
  facet normal -0 0 -1
    outer loop
      vertex 53.5 41.5 20
      vertex 51.618 41.1756 20
      vertex 53.4563 41.9158 20
    endloop
  endfacet
  facet normal -0 0 -1
    outer loop
      vertex 53.4563 41.9158 20
      vertex 51.618 41.1756 20
      vertex 53.3271 42.3135 20
    endloop
  endfacet
  facet normal 0 0 -1
    outer loop
      vertex 53.5 4.5 20
      vertex 51.9563 6.08418 20
      vertex 52 6.5 20
    endloop
  endfacet
  facet normal 0 0 -1
    outer loop
      vertex 53.5 4.5 20
      vertex 51.8271 5.68653 20
      vertex 51.9563 6.08418 20
    endloop
  endfacet
  facet normal 0 0 -1
    outer loop
      vertex 51 4.76795 20
      vertex 52.118 2.59789 20
      vertex 51.7091 2.51096 20
    endloop
  endfacet
  facet normal 0 0 -1
    outer loop
      vertex 53.5 4.5 20
      vertex 51.618 5.32443 20
      vertex 51.8271 5.68653 20
    endloop
  endfacet
  facet normal 0 0 -1
    outer loop
      vertex 53.4563 4.08418 20
      vertex 51.3383 5.01371 20
      vertex 51.618 5.32443 20
    endloop
  endfacet
  facet normal 0 0 -1
    outer loop
      vertex 52.5 2.76795 20
      vertex 51 4.76795 20
      vertex 51.3383 5.01371 20
    endloop
  endfacet
  facet normal 0 0 -1
    outer loop
      vertex 51.7091 2.51096 20
      vertex 50.618 4.59789 20
      vertex 51 4.76795 20
    endloop
  endfacet
  facet normal 0 0 -1
    outer loop
      vertex 51.7091 2.51096 20
      vertex 50.2091 4.51096 20
      vertex 50.618 4.59789 20
    endloop
  endfacet
  facet normal 0 0 -1
    outer loop
      vertex 51.7091 2.51096 20
      vertex 6.29094 4.51096 20
      vertex 50.2091 4.51096 20
    endloop
  endfacet
  facet normal -0 0 -1
    outer loop
      vertex 4.5437 6.08418 20
      vertex 2.5 4.5 20
      vertex 4.5 6.5 20
    endloop
  endfacet
  facet normal -0 0 -1
    outer loop
      vertex 4.67291 5.68653 20
      vertex 2.5 4.5 20
      vertex 4.5437 6.08418 20
    endloop
  endfacet
  facet normal -0 0 -1
    outer loop
      vertex 4.88197 5.32443 20
      vertex 2.5 4.5 20
      vertex 4.67291 5.68653 20
    endloop
  endfacet
  facet normal -0 0 -1
    outer loop
      vertex 5.16174 5.01371 20
      vertex 2.5 4.5 20
      vertex 4.88197 5.32443 20
    endloop
  endfacet
  facet normal 0 0 -1
    outer loop
      vertex 2.5 4.5 20
      vertex 5.16174 5.01371 20
      vertex 4.29094 2.51096 20
    endloop
  endfacet
  facet normal -0 0 -1
    outer loop
      vertex 5.5 4.76795 20
      vertex 4.29094 2.51096 20
      vertex 5.16174 5.01371 20
    endloop
  endfacet
  facet normal -0 0 -1
    outer loop
      vertex 5.88197 4.59789 20
      vertex 4.29094 2.51096 20
      vertex 5.5 4.76795 20
    endloop
  endfacet
  facet normal -0 0 -1
    outer loop
      vertex 6.29094 4.51096 20
      vertex 4.29094 2.51096 20
      vertex 5.88197 4.59789 20
    endloop
  endfacet
  facet normal 0 0 -1
    outer loop
      vertex 4.29094 2.51096 20
      vertex 6.29094 4.51096 20
      vertex 51.7091 2.51096 20
    endloop
  endfacet
  facet normal -0 0 -1
    outer loop
      vertex 53.3271 42.3135 20
      vertex 51.618 41.1756 20
      vertex 53.118 42.6756 20
    endloop
  endfacet
  facet normal 0 0 -1
    outer loop
      vertex 51.3383 41.4863 20
      vertex 53.118 42.6756 20
      vertex 51.618 41.1756 20
    endloop
  endfacet
  facet normal -0 0 -1
    outer loop
      vertex 53.118 42.6756 20
      vertex 51.3383 41.4863 20
      vertex 52.8383 42.9863 20
    endloop
  endfacet
  facet normal -0 0 -1
    outer loop
      vertex 52.8383 42.9863 20
      vertex 51.3383 41.4863 20
      vertex 52.5 43.232 20
    endloop
  endfacet
  facet normal -0 0 -1
    outer loop
      vertex 52.5 43.232 20
      vertex 51.3383 41.4863 20
      vertex 52.118 43.4021 20
    endloop
  endfacet
  facet normal 0 0 -1
    outer loop
      vertex 51 41.732 20
      vertex 52.118 43.4021 20
      vertex 51.3383 41.4863 20
    endloop
  endfacet
  facet normal -0 0 -1
    outer loop
      vertex 52.118 43.4021 20
      vertex 51 41.732 20
      vertex 51.7091 43.489 20
    endloop
  endfacet
  facet normal 0 0 -1
    outer loop
      vertex 50.618 41.9021 20
      vertex 51.7091 43.489 20
      vertex 51 41.732 20
    endloop
  endfacet
  facet normal 0 0 -1
    outer loop
      vertex 50.2091 41.989 20
      vertex 51.7091 43.489 20
      vertex 50.618 41.9021 20
    endloop
  endfacet
  facet normal 0 0 -1
    outer loop
      vertex 6.29094 41.989 20
      vertex 51.7091 43.489 20
      vertex 50.2091 41.989 20
    endloop
  endfacet
  facet normal 0 0 -1
    outer loop
      vertex 6.29094 41.989 20
      vertex 4.29094 43.489 20
      vertex 51.7091 43.489 20
    endloop
  endfacet
  facet normal 0 0 -1
    outer loop
      vertex 5.88197 41.9021 20
      vertex 4.29094 43.489 20
      vertex 6.29094 41.989 20
    endloop
  endfacet
  facet normal 0 0 -1
    outer loop
      vertex 5.5 41.732 20
      vertex 4.29094 43.489 20
      vertex 5.88197 41.9021 20
    endloop
  endfacet
  facet normal 0 0 -1
    outer loop
      vertex 5.16174 41.4863 20
      vertex 4.29094 43.489 20
      vertex 5.5 41.732 20
    endloop
  endfacet
  facet normal 0 0 -1
    outer loop
      vertex 3.5 43.232 20
      vertex 5.16174 41.4863 20
      vertex 4.88197 41.1756 20
    endloop
  endfacet
  facet normal 0 0 -1
    outer loop
      vertex 2.5437 41.9158 20
      vertex 4.88197 41.1756 20
      vertex 4.67291 40.8135 20
    endloop
  endfacet
  facet normal 0 0 -1
    outer loop
      vertex 2.5 41.5 20
      vertex 4.67291 40.8135 20
      vertex 4.5437 40.4158 20
    endloop
  endfacet
  facet normal 0 0 -1
    outer loop
      vertex 2.5 41.5 20
      vertex 4.5437 40.4158 20
      vertex 4.5 40 20
    endloop
  endfacet
  facet normal 0 0 -1
    outer loop
      vertex 2.5 41.5 20
      vertex 4.5 6.5 20
      vertex 2.5 4.5 20
    endloop
  endfacet
  facet normal 0 0 -1
    outer loop
      vertex 2.5 4.5 20
      vertex 4.29094 2.51096 20
      vertex 3.88197 2.59789 20
    endloop
  endfacet
  facet normal 0 0 -1
    outer loop
      vertex 4.5 6.5 20
      vertex 2.5 41.5 20
      vertex 4.5 40 20
    endloop
  endfacet
  facet normal 0 0 -1
    outer loop
      vertex 5.16174 41.4863 20
      vertex 3.88197 43.4021 20
      vertex 4.29094 43.489 20
    endloop
  endfacet
  facet normal 0 0 -1
    outer loop
      vertex 2.5 4.5 20
      vertex 3.88197 2.59789 20
      vertex 3.5 2.76795 20
    endloop
  endfacet
  facet normal 0 0 -1
    outer loop
      vertex 2.5 4.5 20
      vertex 3.5 2.76795 20
      vertex 3.16174 3.01371 20
    endloop
  endfacet
  facet normal 0 0 -1
    outer loop
      vertex 4.67291 40.8135 20
      vertex 2.5 41.5 20
      vertex 2.5437 41.9158 20
    endloop
  endfacet
  facet normal 0 0 -1
    outer loop
      vertex 2.5 4.5 20
      vertex 3.16174 3.01371 20
      vertex 2.88197 3.32443 20
    endloop
  endfacet
  facet normal 0 0 -1
    outer loop
      vertex 5.16174 41.4863 20
      vertex 3.5 43.232 20
      vertex 3.88197 43.4021 20
    endloop
  endfacet
  facet normal 0 0 -1
    outer loop
      vertex 2.5 4.5 20
      vertex 2.88197 3.32443 20
      vertex 2.67291 3.68653 20
    endloop
  endfacet
  facet normal 0 0 -1
    outer loop
      vertex 4.88197 41.1756 20
      vertex 3.16174 42.9863 20
      vertex 3.5 43.232 20
    endloop
  endfacet
  facet normal 0 0 -1
    outer loop
      vertex 2.5 4.5 20
      vertex 2.67291 3.68653 20
      vertex 2.5437 4.08418 20
    endloop
  endfacet
  facet normal 0 0 -1
    outer loop
      vertex 4.88197 41.1756 20
      vertex 2.88197 42.6756 20
      vertex 3.16174 42.9863 20
    endloop
  endfacet
  facet normal 0 0 -1
    outer loop
      vertex 4.88197 41.1756 20
      vertex 2.67291 42.3135 20
      vertex 2.88197 42.6756 20
    endloop
  endfacet
  facet normal 0 0 -1
    outer loop
      vertex 4.88197 41.1756 20
      vertex 2.5437 41.9158 20
      vertex 2.67291 42.3135 20
    endloop
  endfacet
  facet normal -0.994522 0.104526 0
    outer loop
      vertex 2.5 41.5 20
      vertex 2.5437 41.9158 22
      vertex 2.5437 41.9158 20
    endloop
  endfacet
  facet normal -0.994522 0.104526 0
    outer loop
      vertex 2.5437 41.9158 22
      vertex 2.5 41.5 20
      vertex 2.5 41.5 22
    endloop
  endfacet
  facet normal 0.743143 0.669133 0
    outer loop
      vertex 53.118 42.6756 22
      vertex 52.8383 42.9863 20
      vertex 52.8383 42.9863 22
    endloop
  endfacet
  facet normal 0.743143 0.669133 0
    outer loop
      vertex 52.8383 42.9863 20
      vertex 53.118 42.6756 22
      vertex 53.118 42.6756 20
    endloop
  endfacet
  facet normal 0.994522 -0.104529 0
    outer loop
      vertex 53.4563 4.08418 22
      vertex 53.5 4.5 20
      vertex 53.5 4.5 22
    endloop
  endfacet
  facet normal 0.994522 -0.104529 0
    outer loop
      vertex 53.5 4.5 20
      vertex 53.4563 4.08418 22
      vertex 53.4563 4.08418 20
    endloop
  endfacet
  facet normal 0 1 -0
    outer loop
      vertex 51.7091 43.489 20
      vertex 4.29094 43.489 22
      vertex 51.7091 43.489 22
    endloop
  endfacet
  facet normal 0 1 0
    outer loop
      vertex 4.29094 43.489 22
      vertex 51.7091 43.489 20
      vertex 4.29094 43.489 20
    endloop
  endfacet
  facet normal 0.406746 0.913541 -0
    outer loop
      vertex 52.5 43.232 20
      vertex 52.118 43.4021 22
      vertex 52.5 43.232 22
    endloop
  endfacet
  facet normal 0.406746 0.913541 0
    outer loop
      vertex 52.118 43.4021 22
      vertex 52.5 43.232 20
      vertex 52.118 43.4021 20
    endloop
  endfacet
  facet normal -0.866026 -0.499999 0
    outer loop
      vertex 2.88197 3.32443 20
      vertex 2.67291 3.68653 22
      vertex 2.67291 3.68653 20
    endloop
  endfacet
  facet normal -0.866026 -0.499999 0
    outer loop
      vertex 2.67291 3.68653 22
      vertex 2.88197 3.32443 20
      vertex 2.88197 3.32443 22
    endloop
  endfacet
  facet normal -0.951056 -0.309018 0
    outer loop
      vertex 2.67291 3.68653 20
      vertex 2.5437 4.08418 22
      vertex 2.5437 4.08418 20
    endloop
  endfacet
  facet normal -0.951056 -0.309018 0
    outer loop
      vertex 2.5437 4.08418 22
      vertex 2.67291 3.68653 20
      vertex 2.67291 3.68653 22
    endloop
  endfacet
  facet normal -0.406738 -0.913545 0
    outer loop
      vertex 3.5 2.76795 20
      vertex 3.88197 2.59789 22
      vertex 3.5 2.76795 22
    endloop
  endfacet
  facet normal -0.406738 -0.913545 -0
    outer loop
      vertex 3.88197 2.59789 22
      vertex 3.5 2.76795 20
      vertex 3.88197 2.59789 20
    endloop
  endfacet
  facet normal -0.587786 -0.809017 0
    outer loop
      vertex 3.16174 3.01371 20
      vertex 3.5 2.76795 22
      vertex 3.16174 3.01371 22
    endloop
  endfacet
  facet normal -0.587786 -0.809017 -0
    outer loop
      vertex 3.5 2.76795 22
      vertex 3.16174 3.01371 20
      vertex 3.5 2.76795 20
    endloop
  endfacet
  facet normal -0.207911 -0.978148 0
    outer loop
      vertex 3.88197 2.59789 20
      vertex 4.29094 2.51096 22
      vertex 3.88197 2.59789 22
    endloop
  endfacet
  facet normal -0.207911 -0.978148 -0
    outer loop
      vertex 4.29094 2.51096 22
      vertex 3.88197 2.59789 20
      vertex 4.29094 2.51096 20
    endloop
  endfacet
  facet normal -0.866026 0.499998 0
    outer loop
      vertex 2.67291 42.3135 20
      vertex 2.88197 42.6756 22
      vertex 2.88197 42.6756 20
    endloop
  endfacet
  facet normal -0.866026 0.499998 0
    outer loop
      vertex 2.88197 42.6756 22
      vertex 2.67291 42.3135 20
      vertex 2.67291 42.3135 22
    endloop
  endfacet
  facet normal -0.743144 0.669131 0
    outer loop
      vertex 2.88197 42.6756 20
      vertex 3.16174 42.9863 22
      vertex 3.16174 42.9863 20
    endloop
  endfacet
  facet normal -0.743144 0.669131 0
    outer loop
      vertex 3.16174 42.9863 22
      vertex 2.88197 42.6756 20
      vertex 2.88197 42.6756 22
    endloop
  endfacet
  facet normal -0.951056 0.309019 0
    outer loop
      vertex 2.5437 41.9158 20
      vertex 2.67291 42.3135 22
      vertex 2.67291 42.3135 20
    endloop
  endfacet
  facet normal -0.951056 0.309019 0
    outer loop
      vertex 2.67291 42.3135 22
      vertex 2.5437 41.9158 20
      vertex 2.5437 41.9158 22
    endloop
  endfacet
  facet normal 0.951057 -0.309016 0
    outer loop
      vertex 53.3271 3.68653 22
      vertex 53.4563 4.08418 20
      vertex 53.4563 4.08418 22
    endloop
  endfacet
  facet normal 0.951057 -0.309016 0
    outer loop
      vertex 53.4563 4.08418 20
      vertex 53.3271 3.68653 22
      vertex 53.3271 3.68653 20
    endloop
  endfacet
  facet normal 0.866026 -0.499999 0
    outer loop
      vertex 53.118 3.32443 22
      vertex 53.3271 3.68653 20
      vertex 53.3271 3.68653 22
    endloop
  endfacet
  facet normal 0.866026 -0.499999 0
    outer loop
      vertex 53.3271 3.68653 20
      vertex 53.118 3.32443 22
      vertex 53.118 3.32443 20
    endloop
  endfacet
  facet normal 0.587781 0.80902 -0
    outer loop
      vertex 52.8383 42.9863 20
      vertex 52.5 43.232 22
      vertex 52.8383 42.9863 22
    endloop
  endfacet
  facet normal 0.587781 0.80902 0
    outer loop
      vertex 52.5 43.232 22
      vertex 52.8383 42.9863 20
      vertex 52.5 43.232 20
    endloop
  endfacet
  facet normal 0.866026 0.499998 0
    outer loop
      vertex 53.3271 42.3135 22
      vertex 53.118 42.6756 20
      vertex 53.118 42.6756 22
    endloop
  endfacet
  facet normal 0.866026 0.499998 0
    outer loop
      vertex 53.118 42.6756 20
      vertex 53.3271 42.3135 22
      vertex 53.3271 42.3135 20
    endloop
  endfacet
  facet normal 0.951056 0.309017 0
    outer loop
      vertex 53.4563 41.9158 22
      vertex 53.3271 42.3135 20
      vertex 53.3271 42.3135 22
    endloop
  endfacet
  facet normal 0.951056 0.309017 0
    outer loop
      vertex 53.3271 42.3135 20
      vertex 53.4563 41.9158 22
      vertex 53.4563 41.9158 20
    endloop
  endfacet
  facet normal -0.587786 -0.809017 0
    outer loop
      vertex 0.661738 0.51371 22
      vertex 0.999999 0.267949 24
      vertex 0.661738 0.51371 24
    endloop
  endfacet
  facet normal -0.587786 -0.809017 -0
    outer loop
      vertex 0.999999 0.267949 24
      vertex 0.661738 0.51371 22
      vertex 0.999999 0.267949 22
    endloop
  endfacet
  facet normal 0 -1 0
    outer loop
      vertex 1.79094 0.0109558 22
      vertex 54.2091 0.0109558 24
      vertex 1.79094 0.0109558 24
    endloop
  endfacet
  facet normal 0 -1 -0
    outer loop
      vertex 54.2091 0.0109558 24
      vertex 1.79094 0.0109558 22
      vertex 54.2091 0.0109558 22
    endloop
  endfacet
  facet normal -0.994522 -0.104527 0
    outer loop
      vertex 0.043704 1.58418 22
      vertex 0 2 24
      vertex 0 2 22
    endloop
  endfacet
  facet normal -0.994522 -0.104527 0
    outer loop
      vertex 0 2 24
      vertex 0.043704 1.58418 22
      vertex 0.043704 1.58418 24
    endloop
  endfacet
  facet normal 0 0 1
    outer loop
      vertex 54.2091 45.989 24
      vertex 56 44 24
      vertex 55.9563 44.4158 24
    endloop
  endfacet
  facet normal 0 0 1
    outer loop
      vertex 56 44 24
      vertex 54.2091 45.989 24
      vertex 56 2 24
    endloop
  endfacet
  facet normal 0 0 1
    outer loop
      vertex 54.2091 45.989 24
      vertex 55.9563 44.4158 24
      vertex 55.8271 44.8135 24
    endloop
  endfacet
  facet normal 0 0 1
    outer loop
      vertex 54.2091 0.0109558 24
      vertex 56 2 24
      vertex 54.2091 45.989 24
    endloop
  endfacet
  facet normal 0 0 1
    outer loop
      vertex 54.2091 45.989 24
      vertex 55.8271 44.8135 24
      vertex 55.618 45.1756 24
    endloop
  endfacet
  facet normal 0 0 1
    outer loop
      vertex 56 2 24
      vertex 54.2091 0.0109558 24
      vertex 55.9563 1.58418 24
    endloop
  endfacet
  facet normal 0 0 1
    outer loop
      vertex 54.2091 45.989 24
      vertex 55.618 45.1756 24
      vertex 55.3383 45.4863 24
    endloop
  endfacet
  facet normal 0 0 1
    outer loop
      vertex 55.9563 1.58418 24
      vertex 54.2091 0.0109558 24
      vertex 55.8271 1.18653 24
    endloop
  endfacet
  facet normal 0 0 1
    outer loop
      vertex 54.2091 45.989 24
      vertex 55.3383 45.4863 24
      vertex 55 45.732 24
    endloop
  endfacet
  facet normal 0 0 1
    outer loop
      vertex 55.8271 1.18653 24
      vertex 54.2091 0.0109558 24
      vertex 55.618 0.824429 24
    endloop
  endfacet
  facet normal 0 0 1
    outer loop
      vertex 54.2091 45.989 24
      vertex 55 45.732 24
      vertex 54.618 45.9021 24
    endloop
  endfacet
  facet normal 0 0 1
    outer loop
      vertex 55.618 0.824429 24
      vertex 54.2091 0.0109558 24
      vertex 55.3383 0.51371 24
    endloop
  endfacet
  facet normal 0 0 1
    outer loop
      vertex 55.3383 0.51371 24
      vertex 54.2091 0.0109558 24
      vertex 55 0.267949 24
    endloop
  endfacet
  facet normal 0 0 1
    outer loop
      vertex 55 0.267949 24
      vertex 54.2091 0.0109558 24
      vertex 54.618 0.0978861 24
    endloop
  endfacet
  facet normal -0 0 1
    outer loop
      vertex 1.79094 45.989 24
      vertex 54.2091 0.0109558 24
      vertex 54.2091 45.989 24
    endloop
  endfacet
  facet normal 0 0 1
    outer loop
      vertex 1.79094 45.989 24
      vertex 1.79094 0.0109558 24
      vertex 54.2091 0.0109558 24
    endloop
  endfacet
  facet normal 0 0 1
    outer loop
      vertex 0 44 24
      vertex 1.79094 45.989 24
      vertex 1.38197 45.9021 24
    endloop
  endfacet
  facet normal 0 0 1
    outer loop
      vertex 1.79094 45.989 24
      vertex 0 44 24
      vertex 1.79094 0.0109558 24
    endloop
  endfacet
  facet normal 0 0 1
    outer loop
      vertex 0 44 24
      vertex 1.38197 45.9021 24
      vertex 1 45.732 24
    endloop
  endfacet
  facet normal -0 0 1
    outer loop
      vertex 0 2 24
      vertex 1.79094 0.0109558 24
      vertex 0 44 24
    endloop
  endfacet
  facet normal 0 0 1
    outer loop
      vertex 0 44 24
      vertex 1 45.732 24
      vertex 0.661738 45.4863 24
    endloop
  endfacet
  facet normal 0 0 1
    outer loop
      vertex 1.79094 0.0109558 24
      vertex 0 2 24
      vertex 1.38197 0.0978861 24
    endloop
  endfacet
  facet normal 0 0 1
    outer loop
      vertex 0 44 24
      vertex 0.661738 45.4863 24
      vertex 0.381966 45.1756 24
    endloop
  endfacet
  facet normal 0 0 1
    outer loop
      vertex 1.38197 0.0978861 24
      vertex 0 2 24
      vertex 0.999999 0.267949 24
    endloop
  endfacet
  facet normal 0 0 1
    outer loop
      vertex 0 44 24
      vertex 0.381966 45.1756 24
      vertex 0.172909 44.8135 24
    endloop
  endfacet
  facet normal 0 0 1
    outer loop
      vertex 0.999999 0.267949 24
      vertex 0 2 24
      vertex 0.661738 0.51371 24
    endloop
  endfacet
  facet normal 0 0 1
    outer loop
      vertex 0 44 24
      vertex 0.172909 44.8135 24
      vertex 0.043704 44.4158 24
    endloop
  endfacet
  facet normal 0 0 1
    outer loop
      vertex 0.661738 0.51371 24
      vertex 0 2 24
      vertex 0.381966 0.824429 24
    endloop
  endfacet
  facet normal 0 0 1
    outer loop
      vertex 0.381966 0.824429 24
      vertex 0 2 24
      vertex 0.172909 1.18653 24
    endloop
  endfacet
  facet normal 0 0 1
    outer loop
      vertex 0.172909 1.18653 24
      vertex 0 2 24
      vertex 0.043704 1.58418 24
    endloop
  endfacet
  facet normal 0.406739 -0.913545 0
    outer loop
      vertex 54.618 0.0978861 22
      vertex 55 0.267949 24
      vertex 54.618 0.0978861 24
    endloop
  endfacet
  facet normal 0.406739 -0.913545 0
    outer loop
      vertex 55 0.267949 24
      vertex 54.618 0.0978861 22
      vertex 55 0.267949 22
    endloop
  endfacet
  facet normal 0.994522 0.104529 0
    outer loop
      vertex 56 44 24
      vertex 55.9563 44.4158 22
      vertex 55.9563 44.4158 24
    endloop
  endfacet
  facet normal 0.994522 0.104529 0
    outer loop
      vertex 55.9563 44.4158 22
      vertex 56 44 24
      vertex 56 44 22
    endloop
  endfacet
  facet normal 1 -0 0
    outer loop
      vertex 56 2 24
      vertex 56 44 22
      vertex 56 44 24
    endloop
  endfacet
  facet normal 1 0 0
    outer loop
      vertex 56 44 22
      vertex 56 2 24
      vertex 56 2 22
    endloop
  endfacet
  facet normal 0 1 -0
    outer loop
      vertex 54.2091 45.989 22
      vertex 1.79094 45.989 24
      vertex 54.2091 45.989 24
    endloop
  endfacet
  facet normal 0 1 0
    outer loop
      vertex 1.79094 45.989 24
      vertex 54.2091 45.989 22
      vertex 1.79094 45.989 22
    endloop
  endfacet
  facet normal 0.20791 -0.978148 0
    outer loop
      vertex 54.2091 0.0109558 22
      vertex 54.618 0.0978861 24
      vertex 54.2091 0.0109558 24
    endloop
  endfacet
  facet normal 0.20791 -0.978148 0
    outer loop
      vertex 54.618 0.0978861 24
      vertex 54.2091 0.0109558 22
      vertex 54.618 0.0978861 22
    endloop
  endfacet
  facet normal 0.587786 -0.809017 0
    outer loop
      vertex 55 0.267949 22
      vertex 55.3383 0.51371 24
      vertex 55 0.267949 24
    endloop
  endfacet
  facet normal 0.587786 -0.809017 0
    outer loop
      vertex 55.3383 0.51371 24
      vertex 55 0.267949 22
      vertex 55.3383 0.51371 22
    endloop
  endfacet
  facet normal -0.866026 -0.499999 0
    outer loop
      vertex 0.381966 0.824429 22
      vertex 0.172909 1.18653 24
      vertex 0.172909 1.18653 22
    endloop
  endfacet
  facet normal -0.866026 -0.499999 0
    outer loop
      vertex 0.172909 1.18653 24
      vertex 0.381966 0.824429 22
      vertex 0.381966 0.824429 24
    endloop
  endfacet
  facet normal 0.743143 -0.669133 0
    outer loop
      vertex 55.3383 0.51371 24
      vertex 55.618 0.824429 22
      vertex 55.618 0.824429 24
    endloop
  endfacet
  facet normal 0.743143 -0.669133 0
    outer loop
      vertex 55.618 0.824429 22
      vertex 55.3383 0.51371 24
      vertex 55.3383 0.51371 22
    endloop
  endfacet
  facet normal -0.207909 0.978148 0
    outer loop
      vertex 1.79094 45.989 22
      vertex 1.38197 45.9021 24
      vertex 1.79094 45.989 24
    endloop
  endfacet
  facet normal -0.207909 0.978148 0
    outer loop
      vertex 1.38197 45.9021 24
      vertex 1.79094 45.989 22
      vertex 1.38197 45.9021 22
    endloop
  endfacet
  facet normal -0.406746 0.913541 0
    outer loop
      vertex 1.38197 45.9021 22
      vertex 1 45.732 24
      vertex 1.38197 45.9021 24
    endloop
  endfacet
  facet normal -0.406746 0.913541 0
    outer loop
      vertex 1 45.732 24
      vertex 1.38197 45.9021 22
      vertex 1 45.732 22
    endloop
  endfacet
  facet normal -0.58778 0.809021 0
    outer loop
      vertex 1 45.732 22
      vertex 0.661738 45.4863 24
      vertex 1 45.732 24
    endloop
  endfacet
  facet normal -0.58778 0.809021 0
    outer loop
      vertex 0.661738 45.4863 24
      vertex 1 45.732 22
      vertex 0.661738 45.4863 22
    endloop
  endfacet
  facet normal 0.207908 0.978148 -0
    outer loop
      vertex 54.618 45.9021 22
      vertex 54.2091 45.989 24
      vertex 54.618 45.9021 24
    endloop
  endfacet
  facet normal 0.207908 0.978148 0
    outer loop
      vertex 54.2091 45.989 24
      vertex 54.618 45.9021 22
      vertex 54.2091 45.989 22
    endloop
  endfacet
  facet normal -0.743144 -0.669131 0
    outer loop
      vertex 0.661738 0.51371 22
      vertex 0.381966 0.824429 24
      vertex 0.381966 0.824429 22
    endloop
  endfacet
  facet normal -0.743144 -0.669131 0
    outer loop
      vertex 0.381966 0.824429 24
      vertex 0.661738 0.51371 22
      vertex 0.661738 0.51371 24
    endloop
  endfacet
  facet normal -1 0 0
    outer loop
      vertex 0 2 22
      vertex 0 44 24
      vertex 0 44 22
    endloop
  endfacet
  facet normal -1 -0 0
    outer loop
      vertex 0 44 24
      vertex 0 2 22
      vertex 0 2 24
    endloop
  endfacet
  facet normal -0.994522 0.104526 0
    outer loop
      vertex 0 44 22
      vertex 0.043704 44.4158 24
      vertex 0.043704 44.4158 22
    endloop
  endfacet
  facet normal -0.994522 0.104526 0
    outer loop
      vertex 0.043704 44.4158 24
      vertex 0 44 22
      vertex 0 44 24
    endloop
  endfacet
  facet normal 0.743143 0.669133 0
    outer loop
      vertex 55.618 45.1756 24
      vertex 55.3383 45.4863 22
      vertex 55.3383 45.4863 24
    endloop
  endfacet
  facet normal 0.743143 0.669133 0
    outer loop
      vertex 55.3383 45.4863 22
      vertex 55.618 45.1756 24
      vertex 55.618 45.1756 22
    endloop
  endfacet
  facet normal 0.866026 -0.499999 0
    outer loop
      vertex 55.618 0.824429 24
      vertex 55.8271 1.18653 22
      vertex 55.8271 1.18653 24
    endloop
  endfacet
  facet normal 0.866026 -0.499999 0
    outer loop
      vertex 55.8271 1.18653 22
      vertex 55.618 0.824429 24
      vertex 55.618 0.824429 22
    endloop
  endfacet
  facet normal 0.994522 -0.104529 0
    outer loop
      vertex 55.9563 1.58418 24
      vertex 56 2 22
      vertex 56 2 24
    endloop
  endfacet
  facet normal 0.994522 -0.104529 0
    outer loop
      vertex 56 2 22
      vertex 55.9563 1.58418 24
      vertex 55.9563 1.58418 22
    endloop
  endfacet
  facet normal 0.951057 -0.309016 0
    outer loop
      vertex 55.8271 1.18653 24
      vertex 55.9563 1.58418 22
      vertex 55.9563 1.58418 24
    endloop
  endfacet
  facet normal 0.951057 -0.309016 0
    outer loop
      vertex 55.9563 1.58418 22
      vertex 55.8271 1.18653 24
      vertex 55.8271 1.18653 22
    endloop
  endfacet
  facet normal 0.406746 0.913541 -0
    outer loop
      vertex 55 45.732 22
      vertex 54.618 45.9021 24
      vertex 55 45.732 24
    endloop
  endfacet
  facet normal 0.406746 0.913541 0
    outer loop
      vertex 54.618 45.9021 24
      vertex 55 45.732 22
      vertex 54.618 45.9021 22
    endloop
  endfacet
  facet normal -0.951056 -0.309018 0
    outer loop
      vertex 0.172909 1.18653 22
      vertex 0.043704 1.58418 24
      vertex 0.043704 1.58418 22
    endloop
  endfacet
  facet normal -0.951056 -0.309018 0
    outer loop
      vertex 0.043704 1.58418 24
      vertex 0.172909 1.18653 22
      vertex 0.172909 1.18653 24
    endloop
  endfacet
  facet normal -0.406738 -0.913545 0
    outer loop
      vertex 0.999999 0.267949 22
      vertex 1.38197 0.0978861 24
      vertex 0.999999 0.267949 24
    endloop
  endfacet
  facet normal -0.406738 -0.913545 -0
    outer loop
      vertex 1.38197 0.0978861 24
      vertex 0.999999 0.267949 22
      vertex 1.38197 0.0978861 22
    endloop
  endfacet
  facet normal -0.207911 -0.978148 0
    outer loop
      vertex 1.38197 0.0978861 22
      vertex 1.79094 0.0109558 24
      vertex 1.38197 0.0978861 24
    endloop
  endfacet
  facet normal -0.207911 -0.978148 -0
    outer loop
      vertex 1.79094 0.0109558 24
      vertex 1.38197 0.0978861 22
      vertex 1.79094 0.0109558 22
    endloop
  endfacet
  facet normal -0.866026 0.499998 0
    outer loop
      vertex 0.172909 44.8135 22
      vertex 0.381966 45.1756 24
      vertex 0.381966 45.1756 22
    endloop
  endfacet
  facet normal -0.866026 0.499998 0
    outer loop
      vertex 0.381966 45.1756 24
      vertex 0.172909 44.8135 22
      vertex 0.172909 44.8135 24
    endloop
  endfacet
  facet normal -0.743144 0.669131 0
    outer loop
      vertex 0.381966 45.1756 22
      vertex 0.661738 45.4863 24
      vertex 0.661738 45.4863 22
    endloop
  endfacet
  facet normal -0.743144 0.669131 0
    outer loop
      vertex 0.661738 45.4863 24
      vertex 0.381966 45.1756 22
      vertex 0.381966 45.1756 24
    endloop
  endfacet
  facet normal -0.951056 0.309019 0
    outer loop
      vertex 0.043704 44.4158 22
      vertex 0.172909 44.8135 24
      vertex 0.172909 44.8135 22
    endloop
  endfacet
  facet normal -0.951056 0.309019 0
    outer loop
      vertex 0.172909 44.8135 24
      vertex 0.043704 44.4158 22
      vertex 0.043704 44.4158 24
    endloop
  endfacet
  facet normal 0.587781 0.80902 -0
    outer loop
      vertex 55.3383 45.4863 22
      vertex 55 45.732 24
      vertex 55.3383 45.4863 24
    endloop
  endfacet
  facet normal 0.587781 0.80902 0
    outer loop
      vertex 55 45.732 24
      vertex 55.3383 45.4863 22
      vertex 55 45.732 22
    endloop
  endfacet
  facet normal 0.866026 0.499998 0
    outer loop
      vertex 55.8271 44.8135 24
      vertex 55.618 45.1756 22
      vertex 55.618 45.1756 24
    endloop
  endfacet
  facet normal 0.866026 0.499998 0
    outer loop
      vertex 55.618 45.1756 22
      vertex 55.8271 44.8135 24
      vertex 55.8271 44.8135 22
    endloop
  endfacet
  facet normal 0.951056 0.309017 0
    outer loop
      vertex 55.9563 44.4158 24
      vertex 55.8271 44.8135 22
      vertex 55.8271 44.8135 24
    endloop
  endfacet
  facet normal 0.951056 0.309017 0
    outer loop
      vertex 55.8271 44.8135 22
      vertex 55.9563 44.4158 24
      vertex 55.9563 44.4158 22
    endloop
  endfacet
  facet normal 0 1 -0
    outer loop
      vertex 50.2091 4.51096 20
      vertex 6.29094 4.51096 22
      vertex 50.2091 4.51096 22
    endloop
  endfacet
  facet normal 0 1 0
    outer loop
      vertex 6.29094 4.51096 22
      vertex 50.2091 4.51096 20
      vertex 6.29094 4.51096 20
    endloop
  endfacet
  facet normal 0.994522 0.104527 0
    outer loop
      vertex 4.5437 6.08418 22
      vertex 4.5 6.5 20
      vertex 4.5 6.5 22
    endloop
  endfacet
  facet normal 0.994522 0.104527 0
    outer loop
      vertex 4.5 6.5 20
      vertex 4.5437 6.08418 22
      vertex 4.5437 6.08418 20
    endloop
  endfacet
  facet normal 0 0 -1
    outer loop
      vertex 50.2091 4.51096 22
      vertex 52 6.5 22
      vertex 51.9563 6.08418 22
    endloop
  endfacet
  facet normal -0 0 -1
    outer loop
      vertex 52 6.5 22
      vertex 50.2091 4.51096 22
      vertex 52 40 22
    endloop
  endfacet
  facet normal 0 0 -1
    outer loop
      vertex 50.2091 4.51096 22
      vertex 51.9563 6.08418 22
      vertex 51.8271 5.68653 22
    endloop
  endfacet
  facet normal 0 0 -1
    outer loop
      vertex 50.2091 41.989 22
      vertex 52 40 22
      vertex 50.2091 4.51096 22
    endloop
  endfacet
  facet normal 0 0 -1
    outer loop
      vertex 50.2091 4.51096 22
      vertex 51.8271 5.68653 22
      vertex 51.618 5.32443 22
    endloop
  endfacet
  facet normal 0 0 -1
    outer loop
      vertex 52 40 22
      vertex 50.2091 41.989 22
      vertex 51.9563 40.4158 22
    endloop
  endfacet
  facet normal 0 0 -1
    outer loop
      vertex 50.2091 4.51096 22
      vertex 51.618 5.32443 22
      vertex 51.3383 5.01371 22
    endloop
  endfacet
  facet normal 0 0 -1
    outer loop
      vertex 51.9563 40.4158 22
      vertex 50.2091 41.989 22
      vertex 51.8271 40.8135 22
    endloop
  endfacet
  facet normal 0 0 -1
    outer loop
      vertex 50.2091 4.51096 22
      vertex 51.3383 5.01371 22
      vertex 51 4.76795 22
    endloop
  endfacet
  facet normal 0 0 -1
    outer loop
      vertex 51.8271 40.8135 22
      vertex 50.2091 41.989 22
      vertex 51.618 41.1756 22
    endloop
  endfacet
  facet normal 0 0 -1
    outer loop
      vertex 50.2091 4.51096 22
      vertex 51 4.76795 22
      vertex 50.618 4.59789 22
    endloop
  endfacet
  facet normal 0 0 -1
    outer loop
      vertex 51.618 41.1756 22
      vertex 50.2091 41.989 22
      vertex 51.3383 41.4863 22
    endloop
  endfacet
  facet normal 0 0 -1
    outer loop
      vertex 51.3383 41.4863 22
      vertex 50.2091 41.989 22
      vertex 51 41.732 22
    endloop
  endfacet
  facet normal 0 0 -1
    outer loop
      vertex 51 41.732 22
      vertex 50.2091 41.989 22
      vertex 50.618 41.9021 22
    endloop
  endfacet
  facet normal 0 0 -1
    outer loop
      vertex 6.29094 4.51096 22
      vertex 50.2091 41.989 22
      vertex 50.2091 4.51096 22
    endloop
  endfacet
  facet normal 0 0 -1
    outer loop
      vertex 6.29094 4.51096 22
      vertex 6.29094 41.989 22
      vertex 50.2091 41.989 22
    endloop
  endfacet
  facet normal 0 0 -1
    outer loop
      vertex 4.5 6.5 22
      vertex 6.29094 4.51096 22
      vertex 5.88197 4.59789 22
    endloop
  endfacet
  facet normal 0 0 -1
    outer loop
      vertex 6.29094 4.51096 22
      vertex 4.5 6.5 22
      vertex 6.29094 41.989 22
    endloop
  endfacet
  facet normal 0 0 -1
    outer loop
      vertex 6.29094 41.989 22
      vertex 4.5 40 22
      vertex 5.88197 41.9021 22
    endloop
  endfacet
  facet normal 0 0 -1
    outer loop
      vertex 4.5 6.5 22
      vertex 5.88197 4.59789 22
      vertex 5.5 4.76795 22
    endloop
  endfacet
  facet normal 0 0 -1
    outer loop
      vertex 4.5 6.5 22
      vertex 5.5 4.76795 22
      vertex 5.16174 5.01371 22
    endloop
  endfacet
  facet normal 0 0 -1
    outer loop
      vertex 6.29094 41.989 22
      vertex 4.5 6.5 22
      vertex 4.5 40 22
    endloop
  endfacet
  facet normal 0 0 -1
    outer loop
      vertex 4.5 6.5 22
      vertex 5.16174 5.01371 22
      vertex 4.88197 5.32443 22
    endloop
  endfacet
  facet normal 0 0 -1
    outer loop
      vertex 5.88197 41.9021 22
      vertex 4.5 40 22
      vertex 5.5 41.732 22
    endloop
  endfacet
  facet normal 0 0 -1
    outer loop
      vertex 4.5 6.5 22
      vertex 4.88197 5.32443 22
      vertex 4.67291 5.68653 22
    endloop
  endfacet
  facet normal 0 0 -1
    outer loop
      vertex 5.5 41.732 22
      vertex 4.5 40 22
      vertex 5.16174 41.4863 22
    endloop
  endfacet
  facet normal 0 0 -1
    outer loop
      vertex 4.5 6.5 22
      vertex 4.67291 5.68653 22
      vertex 4.5437 6.08418 22
    endloop
  endfacet
  facet normal 0 0 -1
    outer loop
      vertex 5.16174 41.4863 22
      vertex 4.5 40 22
      vertex 4.88197 41.1756 22
    endloop
  endfacet
  facet normal 0 0 -1
    outer loop
      vertex 4.88197 41.1756 22
      vertex 4.5 40 22
      vertex 4.67291 40.8135 22
    endloop
  endfacet
  facet normal 0 0 -1
    outer loop
      vertex 4.67291 40.8135 22
      vertex 4.5 40 22
      vertex 4.5437 40.4158 22
    endloop
  endfacet
  facet normal -0.406739 0.913545 0
    outer loop
      vertex 51 4.76795 20
      vertex 50.618 4.59789 22
      vertex 51 4.76795 22
    endloop
  endfacet
  facet normal -0.406739 0.913545 0
    outer loop
      vertex 50.618 4.59789 22
      vertex 51 4.76795 20
      vertex 50.618 4.59789 20
    endloop
  endfacet
  facet normal -0.994522 -0.104529 0
    outer loop
      vertex 52 40 20
      vertex 51.9563 40.4158 22
      vertex 51.9563 40.4158 20
    endloop
  endfacet
  facet normal -0.994522 -0.104529 0
    outer loop
      vertex 51.9563 40.4158 22
      vertex 52 40 20
      vertex 52 40 22
    endloop
  endfacet
  facet normal -1 0 0
    outer loop
      vertex 52 6.5 20
      vertex 52 40 22
      vertex 52 40 20
    endloop
  endfacet
  facet normal -1 -0 0
    outer loop
      vertex 52 40 22
      vertex 52 6.5 20
      vertex 52 6.5 22
    endloop
  endfacet
  facet normal 0 -1 0
    outer loop
      vertex 6.29094 41.989 20
      vertex 50.2091 41.989 22
      vertex 6.29094 41.989 22
    endloop
  endfacet
  facet normal 0 -1 -0
    outer loop
      vertex 50.2091 41.989 22
      vertex 6.29094 41.989 20
      vertex 50.2091 41.989 20
    endloop
  endfacet
  facet normal -0.207908 -0.978148 0
    outer loop
      vertex 50.2091 41.989 20
      vertex 50.618 41.9021 22
      vertex 50.2091 41.989 22
    endloop
  endfacet
  facet normal -0.207908 -0.978148 -0
    outer loop
      vertex 50.618 41.9021 22
      vertex 50.2091 41.989 20
      vertex 50.618 41.9021 20
    endloop
  endfacet
  facet normal -0.743143 -0.669133 0
    outer loop
      vertex 51.618 41.1756 20
      vertex 51.3383 41.4863 22
      vertex 51.3383 41.4863 20
    endloop
  endfacet
  facet normal -0.743143 -0.669133 0
    outer loop
      vertex 51.3383 41.4863 22
      vertex 51.618 41.1756 20
      vertex 51.618 41.1756 22
    endloop
  endfacet
  facet normal -0.20791 0.978148 0
    outer loop
      vertex 50.618 4.59789 20
      vertex 50.2091 4.51096 22
      vertex 50.618 4.59789 22
    endloop
  endfacet
  facet normal -0.20791 0.978148 0
    outer loop
      vertex 50.2091 4.51096 22
      vertex 50.618 4.59789 20
      vertex 50.2091 4.51096 20
    endloop
  endfacet
  facet normal -0.587786 0.809017 0
    outer loop
      vertex 51.3383 5.01371 20
      vertex 51 4.76795 22
      vertex 51.3383 5.01371 22
    endloop
  endfacet
  facet normal -0.587786 0.809017 0
    outer loop
      vertex 51 4.76795 22
      vertex 51.3383 5.01371 20
      vertex 51 4.76795 20
    endloop
  endfacet
  facet normal 0.207911 0.978148 -0
    outer loop
      vertex 6.29094 4.51096 20
      vertex 5.88197 4.59789 22
      vertex 6.29094 4.51096 22
    endloop
  endfacet
  facet normal 0.207911 0.978148 0
    outer loop
      vertex 5.88197 4.59789 22
      vertex 6.29094 4.51096 20
      vertex 5.88197 4.59789 20
    endloop
  endfacet
  facet normal -0.743143 0.669133 0
    outer loop
      vertex 51.3383 5.01371 20
      vertex 51.618 5.32443 22
      vertex 51.618 5.32443 20
    endloop
  endfacet
  facet normal -0.743143 0.669133 0
    outer loop
      vertex 51.618 5.32443 22
      vertex 51.3383 5.01371 20
      vertex 51.3383 5.01371 22
    endloop
  endfacet
  facet normal 0.406746 -0.913541 0
    outer loop
      vertex 5.5 41.732 20
      vertex 5.88197 41.9021 22
      vertex 5.5 41.732 22
    endloop
  endfacet
  facet normal 0.406746 -0.913541 0
    outer loop
      vertex 5.88197 41.9021 22
      vertex 5.5 41.732 20
      vertex 5.88197 41.9021 20
    endloop
  endfacet
  facet normal 0.207909 -0.978148 0
    outer loop
      vertex 5.88197 41.9021 20
      vertex 6.29094 41.989 22
      vertex 5.88197 41.9021 22
    endloop
  endfacet
  facet normal 0.207909 -0.978148 0
    outer loop
      vertex 6.29094 41.989 22
      vertex 5.88197 41.9021 20
      vertex 6.29094 41.989 20
    endloop
  endfacet
  facet normal 0.743144 0.669131 0
    outer loop
      vertex 5.16174 5.01371 22
      vertex 4.88197 5.32443 20
      vertex 4.88197 5.32443 22
    endloop
  endfacet
  facet normal 0.743144 0.669131 0
    outer loop
      vertex 4.88197 5.32443 20
      vertex 5.16174 5.01371 22
      vertex 5.16174 5.01371 20
    endloop
  endfacet
  facet normal 1 -0 0
    outer loop
      vertex 4.5 6.5 22
      vertex 4.5 40 20
      vertex 4.5 40 22
    endloop
  endfacet
  facet normal 1 0 0
    outer loop
      vertex 4.5 40 20
      vertex 4.5 6.5 22
      vertex 4.5 6.5 20
    endloop
  endfacet
  facet normal 0.866026 -0.499998 0
    outer loop
      vertex 4.67291 40.8135 22
      vertex 4.88197 41.1756 20
      vertex 4.88197 41.1756 22
    endloop
  endfacet
  facet normal 0.866026 -0.499998 0
    outer loop
      vertex 4.88197 41.1756 20
      vertex 4.67291 40.8135 22
      vertex 4.67291 40.8135 20
    endloop
  endfacet
  facet normal -0.994522 0.104529 0
    outer loop
      vertex 51.9563 6.08418 20
      vertex 52 6.5 22
      vertex 52 6.5 20
    endloop
  endfacet
  facet normal -0.994522 0.104529 0
    outer loop
      vertex 52 6.5 22
      vertex 51.9563 6.08418 20
      vertex 51.9563 6.08418 22
    endloop
  endfacet
  facet normal -0.866026 0.499999 0
    outer loop
      vertex 51.618 5.32443 20
      vertex 51.8271 5.68653 22
      vertex 51.8271 5.68653 20
    endloop
  endfacet
  facet normal -0.866026 0.499999 0
    outer loop
      vertex 51.8271 5.68653 22
      vertex 51.618 5.32443 20
      vertex 51.618 5.32443 22
    endloop
  endfacet
  facet normal -0.406746 -0.913541 0
    outer loop
      vertex 50.618 41.9021 20
      vertex 51 41.732 22
      vertex 50.618 41.9021 22
    endloop
  endfacet
  facet normal -0.406746 -0.913541 -0
    outer loop
      vertex 51 41.732 22
      vertex 50.618 41.9021 20
      vertex 51 41.732 20
    endloop
  endfacet
  facet normal -0.587781 -0.80902 0
    outer loop
      vertex 51 41.732 20
      vertex 51.3383 41.4863 22
      vertex 51 41.732 22
    endloop
  endfacet
  facet normal -0.587781 -0.80902 -0
    outer loop
      vertex 51.3383 41.4863 22
      vertex 51 41.732 20
      vertex 51.3383 41.4863 20
    endloop
  endfacet
  facet normal 0.866026 0.499999 0
    outer loop
      vertex 4.88197 5.32443 22
      vertex 4.67291 5.68653 20
      vertex 4.67291 5.68653 22
    endloop
  endfacet
  facet normal 0.866026 0.499999 0
    outer loop
      vertex 4.67291 5.68653 20
      vertex 4.88197 5.32443 22
      vertex 4.88197 5.32443 20
    endloop
  endfacet
  facet normal 0.951056 0.309018 0
    outer loop
      vertex 4.67291 5.68653 22
      vertex 4.5437 6.08418 20
      vertex 4.5437 6.08418 22
    endloop
  endfacet
  facet normal 0.951056 0.309018 0
    outer loop
      vertex 4.5437 6.08418 20
      vertex 4.67291 5.68653 22
      vertex 4.67291 5.68653 20
    endloop
  endfacet
  facet normal 0.406738 0.913545 -0
    outer loop
      vertex 5.88197 4.59789 20
      vertex 5.5 4.76795 22
      vertex 5.88197 4.59789 22
    endloop
  endfacet
  facet normal 0.406738 0.913545 0
    outer loop
      vertex 5.5 4.76795 22
      vertex 5.88197 4.59789 20
      vertex 5.5 4.76795 20
    endloop
  endfacet
  facet normal 0.587786 0.809017 -0
    outer loop
      vertex 5.5 4.76795 20
      vertex 5.16174 5.01371 22
      vertex 5.5 4.76795 22
    endloop
  endfacet
  facet normal 0.587786 0.809017 0
    outer loop
      vertex 5.16174 5.01371 22
      vertex 5.5 4.76795 20
      vertex 5.16174 5.01371 20
    endloop
  endfacet
  facet normal 0.743144 -0.669131 0
    outer loop
      vertex 4.88197 41.1756 22
      vertex 5.16174 41.4863 20
      vertex 5.16174 41.4863 22
    endloop
  endfacet
  facet normal 0.743144 -0.669131 0
    outer loop
      vertex 5.16174 41.4863 20
      vertex 4.88197 41.1756 22
      vertex 4.88197 41.1756 20
    endloop
  endfacet
  facet normal 0.58778 -0.809021 0
    outer loop
      vertex 5.16174 41.4863 20
      vertex 5.5 41.732 22
      vertex 5.16174 41.4863 22
    endloop
  endfacet
  facet normal 0.58778 -0.809021 0
    outer loop
      vertex 5.5 41.732 22
      vertex 5.16174 41.4863 20
      vertex 5.5 41.732 20
    endloop
  endfacet
  facet normal 0.994522 -0.104526 0
    outer loop
      vertex 4.5 40 22
      vertex 4.5437 40.4158 20
      vertex 4.5437 40.4158 22
    endloop
  endfacet
  facet normal 0.994522 -0.104526 0
    outer loop
      vertex 4.5437 40.4158 20
      vertex 4.5 40 22
      vertex 4.5 40 20
    endloop
  endfacet
  facet normal -0.866026 -0.499998 0
    outer loop
      vertex 51.8271 40.8135 20
      vertex 51.618 41.1756 22
      vertex 51.618 41.1756 20
    endloop
  endfacet
  facet normal -0.866026 -0.499998 0
    outer loop
      vertex 51.618 41.1756 22
      vertex 51.8271 40.8135 20
      vertex 51.8271 40.8135 22
    endloop
  endfacet
  facet normal -0.951056 -0.309017 0
    outer loop
      vertex 51.9563 40.4158 20
      vertex 51.8271 40.8135 22
      vertex 51.8271 40.8135 20
    endloop
  endfacet
  facet normal -0.951056 -0.309017 0
    outer loop
      vertex 51.8271 40.8135 22
      vertex 51.9563 40.4158 20
      vertex 51.9563 40.4158 22
    endloop
  endfacet
  facet normal 0.951056 -0.309019 0
    outer loop
      vertex 4.5437 40.4158 22
      vertex 4.67291 40.8135 20
      vertex 4.67291 40.8135 22
    endloop
  endfacet
  facet normal 0.951056 -0.309019 0
    outer loop
      vertex 4.67291 40.8135 20
      vertex 4.5437 40.4158 22
      vertex 4.5437 40.4158 20
    endloop
  endfacet
  facet normal -0.951057 0.309016 0
    outer loop
      vertex 51.8271 5.68653 20
      vertex 51.9563 6.08418 22
      vertex 51.9563 6.08418 20
    endloop
  endfacet
  facet normal -0.951057 0.309016 0
    outer loop
      vertex 51.9563 6.08418 22
      vertex 51.8271 5.68653 20
      vertex 51.8271 5.68653 22
    endloop
  endfacet
endsolid OpenSCAD_Model
